<?xml version="1.0" standalone="no"?>
<!DOCTYPE svg PUBLIC "-//W3C//DTD SVG 1.1//EN" "http://www.w3.org/Graphics/SVG/1.1/DTD/svg11.dtd" >
<svg xmlns="http://www.w3.org/2000/svg" xmlns:xlink="http://www.w3.org/1999/xlink" version="1.1">
<metadata>
Created by FontForge 20170731 at Mon Aug 25 05:05:58 2014
 By nod
(c) 2014 Sergiy S. Tkachenko / 4th february
(c) 2014 IPHostMonitor.com
http://creativecommons.org/licenses/by-nd/3.0
http://creativecommons.org/licenses/by-nd/3.0/deed.ru
</metadata>
<defs>
<font id="Monitorca-Bold" horiz-adv-x="496" >
  <font-face 
    font-family="Monitorca"
    font-weight="700"
    font-stretch="normal"
    units-per-em="1000"
    panose-1="2 11 4 3 2 2 2 2 2 4"
    ascent="750"
    descent="-250"
    x-height="500"
    cap-height="700"
    bbox="-77 -250 810 929"
    underline-thickness="50"
    underline-position="-100"
    unicode-range="U+0020-E0AE"
  />
<missing-glyph horiz-adv-x="200" 
 />
    <glyph glyph-name=".notdef" horiz-adv-x="200" 
 />
    <glyph glyph-name=".null" horiz-adv-x="0" 
 />
    <glyph glyph-name="nonmarkingreturn" horiz-adv-x="200" 
 />
    <glyph glyph-name="space" unicode=" " horiz-adv-x="200" 
 />
    <glyph glyph-name="space" unicode="&#xa0;" horiz-adv-x="200" 
 />
    <glyph glyph-name="dollar" unicode="$" horiz-adv-x="443" 
d="M403 188q0 -76 -40.5 -119t-117.5 -48v-71h-40v70h-156v81h156v208l-4 2q-29 10 -58 22.5t-51.5 34t-36.5 55.5t-14 87q0 79 41.5 122t122.5 47v71h40v-70h137v-81h-137v-213q30 -11 58.5 -24.5t50.5 -36t35.5 -55.5t13.5 -82zM126 512q0 -27 6 -45.5t16.5 -31.5t25 -21
t31.5 -14v198q-79 -8 -79 -86zM318 186q0 52 -21.5 75.5t-51.5 34.5v-194q73 11 73 84z" />
    <glyph glyph-name="percent" unicode="%" horiz-adv-x="606" 
d="M426 299q31 0 55 -12t40 -32.5t24 -48t8 -57.5v-9q0 -30 -8.5 -57t-24.5 -47.5t-39.5 -32.5t-54.5 -12q-30 0 -53.5 12t-39.5 32.5t-24.5 47.5t-8.5 57v9q0 30 8 57.5t24 48t39.5 32.5t54.5 12zM180 401q-31 0 -55 12t-40 32.5t-24 48t-8 57.5v9q0 30 8.5 57t24.5 47.5
t39.5 32.5t54.5 12t54.5 -12t39.5 -32.5t24.5 -47.5t8.5 -57v-9q0 -30 -8 -57.5t-24 -48t-40 -32.5t-55 -12zM180 481q23 0 34 21.5t11 48.5v9q0 27 -11 48t-34 21t-33.5 -19.5t-10.5 -49.5v-9q0 -30 10.5 -50t33.5 -20zM426 219q-23 0 -33.5 -21.5t-10.5 -48.5v-9
q0 -27 10.5 -48t33.5 -21t34 19.5t11 49.5v9q0 30 -11 50t-34 20zM74 0l365 700h93l-365 -700h-93z" />
    <glyph glyph-name="ampersand" unicode="&#x26;" horiz-adv-x="555" 
d="M245 619q-29 0 -43 -16t-14 -40v-19q0 -45 16.5 -78t30.5 -55l8 -12l103 -169q7 22 16.5 46t23 43.5t33 32.5t45.5 13h30v-81h-23q-18 0 -25.5 -16.5t-18.5 -54.5l-8 -29l-15 -49q20 -36 39.5 -45t27.5 -9h47v-81h-54q-28 0 -54.5 16.5t-46.5 36.5q-22 -29 -52.5 -45.5
t-78.5 -16.5q-47 0 -80.5 12.5t-55 34t-32 49.5t-10.5 60v37q0 36 8 64.5t22 51t32.5 41t39.5 34.5q-20 32 -36.5 74t-16.5 96v19q0 28 9 53t26.5 43.5t44 29t62.5 10.5h138v-81h-138zM140 147q0 -12 4 -24.5t14 -23.5t27 -18t43 -7q32 0 52 15t32 37v1l-109 178
q-27 -25 -45 -53t-18 -68v-37z" />
    <glyph glyph-name="quotesingle" unicode="'" horiz-adv-x="164" 
d="M117 700l-15 -200h-40l-15 200h70z" />
    <glyph glyph-name="parenleft" unicode="(" horiz-adv-x="276" 
d="M54 558q0 38 13 72.5t38 60.5t62 41t85 15v-83q-33 0 -54.5 -8.5t-34.5 -23.5t-18.5 -34t-5.5 -40v-511q0 -21 5.5 -40t18.5 -34t34.5 -23.5t54.5 -8.5v-83q-48 0 -85 15t-62 41t-38 60.5t-13 72.5v511z" />
    <glyph glyph-name="parenright" unicode=")" horiz-adv-x="277" 
d="M223 47q0 -38 -13 -72.5t-38 -60.5t-62 -41t-86 -15v83q33 0 54.5 8.5t35 23.5t19 34t5.5 40v511q0 21 -5.5 40t-19 34t-35 23.5t-54.5 8.5v83q49 0 86 -15t62 -41t38 -60.5t13 -72.5v-511z" />
    <glyph glyph-name="asterisk" unicode="*" horiz-adv-x="410" 
d="M283 374l-78 103l-78 -104l-50 41l74 100l-118 39q4 13 10.5 30.5t10.5 30.5l118 -39v125h66v-125q10 3 26 8.5t33 11t33 10.5t26 9q4 -13 10.5 -30.5t10.5 -30.5l-120 -39l76 -100z" />
    <glyph glyph-name="plus" unicode="+" horiz-adv-x="582" 
d="M58 391h190v191h85v-191h189v-82h-189v-191h-85v191h-190v82z" />
    <glyph glyph-name="comma" unicode="," horiz-adv-x="221" 
d="M60 0v97h99v-78q0 -46 -19 -76.5t-57 -30.5h-23v56h23q14 0 18 6.5t8 25.5h-49z" />
    <glyph glyph-name="hyphen" unicode="-" horiz-adv-x="338" 
d="M63 217v78h212v-78h-212z" />
    <glyph glyph-name="period" unicode="." horiz-adv-x="221" 
d="M60 0v97h99v-97h-99z" />
    <glyph glyph-name="slash" unicode="/" horiz-adv-x="544" 
d="M480 747l-327 -889h-90l327 889h90z" />
    <glyph glyph-name="zero" unicode="0" horiz-adv-x="448" 
d="M53 539q0 34 11 64t32.5 52.5t53 36t73.5 13.5t73.5 -13.5t53 -36t32.5 -52.5t11 -64v-378q0 -34 -11 -64t-32.5 -52.5t-53 -36t-73.5 -13.5t-73.5 13.5t-53 36t-32.5 52.5t-11 64v378zM138 161q0 -35 21.5 -59.5t63.5 -24.5t63.5 24.5t21.5 59.5v378q0 35 -21.5 59.5
t-63.5 24.5t-63.5 -24.5t-21.5 -59.5v-378z" />
    <glyph glyph-name="one" unicode="1" horiz-adv-x="343" 
d="M146 0v626h-104v74h189v-700h-85z" />
    <glyph glyph-name="two" unicode="2" horiz-adv-x="434" 
d="M213 700q38 0 69 -9t52.5 -30.5t33.5 -57t12 -87.5q0 -42 -8 -74t-23 -60t-37.5 -53.5t-50.5 -54.5q-29 -28 -50.5 -51.5t-37.5 -46t-26 -45.5t-14 -50h256v-81h-345q0 60 9.5 103.5t29 80.5t50 72t71.5 77q24 24 41 45t28 42t16.5 44t5.5 52q0 31 -6 51t-16.5 31.5
t-26 16t-33.5 4.5h-160v81h160z" />
    <glyph glyph-name="three" unicode="3" horiz-adv-x="438" 
d="M226 81q39 0 59.5 23.5t20.5 56.5v61q0 15 -5.5 30t-17.5 28t-32 21t-49 8h-46l-34 82h80q26 0 44 8t29.5 21t16.5 28t5 30v61q0 33 -21 56.5t-60 23.5h-160v81h160q40 0 71 -13t52 -34.5t32 -51t11 -62.5v-61q0 -37 -21 -70.5t-64 -55.5q51 -21 72.5 -55.5t21.5 -74.5
v-61q0 -33 -10.5 -62.5t-31.5 -51t-52 -34.5t-71 -13h-161v81h161z" />
    <glyph glyph-name="four" unicode="4" horiz-adv-x="445" 
d="M245 700l-138 -428h163v225l85 15v-240h75v-81h-75v-191h-85v191h-255v65l145 444h85z" />
    <glyph glyph-name="five" unicode="5" horiz-adv-x="429" 
d="M55 354v346h313v-81h-228v-265h-85zM140 435h81q44 0 75.5 -12t51.5 -32.5t29.5 -48t9.5 -58.5v-123q0 -32 -11 -61.5t-33 -51.5t-54 -35t-74 -13h-160v81h160q42 0 64 24t22 56v123q0 29 -18.5 49.5t-65.5 20.5h-42z" />
    <glyph glyph-name="six" unicode="6" horiz-adv-x="433" 
d="M131 435h90q44 0 75.5 -12t51.5 -32.5t29 -48t9 -58.5v-128q0 -33 -11 -62.5t-32.5 -51t-53 -34.5t-73.5 -13t-73.5 13t-53 34.5t-32.5 51t-11 62.5v383q0 33 11 62t32.5 51t53 35t73.5 13h152v-81h-152q-42 0 -63.5 -24t-21.5 -56v-104zM131 435v-279q0 -32 21.5 -55.5
t63.5 -23.5t63.5 23.5t21.5 55.5v128q0 29 -18.5 49.5t-65.5 20.5h-51z" />
    <glyph glyph-name="seven" unicode="7" horiz-adv-x="406" 
d="M37 700h331v-67q-86 -143 -124.5 -299.5t-38.5 -333.5h-85q0 172 35 325t110 294h-228v81z" />
    <glyph glyph-name="eight" unicode="8" horiz-adv-x="432" 
d="M39 232q0 34 17.5 66.5t64.5 54.5q-42 21 -57 51t-15 64v81q0 30 11 58.5t32 50t52 34.5t72 13t72.5 -13t52.5 -34.5t32 -50t11 -58.5v-81q0 -35 -16.5 -65.5t-57.5 -50.5q45 -21 64 -53.5t19 -66.5v-81q0 -32 -11.5 -60.5t-34 -49.5t-55.5 -33.5t-76 -12.5t-76 12.5
t-55.5 33.5t-34 49.5t-11.5 60.5v81zM124 151q0 -29 19.5 -51.5t72.5 -22.5t72.5 22.5t19.5 51.5v81q0 15 -5 29t-16 25t-28.5 17.5t-42.5 6.5q-27 0 -44.5 -6.5t-28 -17.5t-15 -25t-4.5 -29v-81zM298 549q0 29 -21 51.5t-61 22.5t-61 -22.5t-21 -51.5v-81q0 -30 18.5 -53
t63.5 -23t63.5 23t18.5 53v81z" />
    <glyph glyph-name="nine" unicode="9" horiz-adv-x="433" 
d="M301 265h-90q-44 0 -75.5 12t-51.5 32.5t-29 48t-9 58.5v128q0 33 11 62.5t32.5 51t53 34.5t73.5 13t73.5 -13t53 -34.5t32.5 -51t11 -62.5v-383q0 -33 -11 -62t-32.5 -51t-53 -35t-73.5 -13h-152v81h152q42 0 63.5 24t21.5 56v383q0 32 -21.5 55.5t-63.5 23.5
t-63.5 -23.5t-21.5 -55.5v-128q0 -29 18.5 -49.5t65.5 -20.5h51z" />
    <glyph glyph-name="colon" unicode=":" horiz-adv-x="221" 
d="M60 0v97h99v-97h-99zM60 300v97h99v-97h-99z" />
    <glyph glyph-name="semicolon" unicode=";" horiz-adv-x="221" 
d="M60 0v97h99v-78q0 -46 -19 -76.5t-57 -30.5h-23v56h23q14 0 18 6.5t8 25.5h-49zM60 300v97h99v-97h-99z" />
    <glyph glyph-name="less" unicode="&#x3c;" horiz-adv-x="497" 
d="M57 378l384 183v-90l-105 -49q-36 -17 -74 -32t-75 -29l-30 -11q9 -4 17 -7t18 -5l72 -28t71 -31q24 -11 53.5 -25t52.5 -24v-89l-384 181v56z" />
    <glyph glyph-name="equal" unicode="=" horiz-adv-x="475" 
d="M92 321h290v-72h-290v72zM92 451h290v-72h-290v72z" />
    <glyph glyph-name="greater" unicode="&#x3e;" horiz-adv-x="499" 
d="M441 322l-384 -181v89q23 10 52.5 24t53.5 25q35 17 71 31l72 28q10 2 18 5t17 7l-30 11q-37 14 -75 29t-73 32l-106 49v90l384 -183v-56z" />
    <glyph glyph-name="question" unicode="?" horiz-adv-x="435" 
d="M296 520q0 56 -22 76.5t-59 20.5h-170v83h171q39 0 69.5 -9.5t52 -31t32.5 -56.5t11 -87q0 -27 -5 -47t-14 -37t-22 -32.5t-28 -32.5q-8 -8 -16.5 -18t-16.5 -18q-13 -19 -20.5 -35t-11.5 -32.5t-5.5 -34.5t-1.5 -40h-85q0 31 1 54t6.5 43t17 41.5t32.5 51.5l23 25
q27 29 44 53.5t17 62.5zM240 128v-128h-85v128h85z" />
    <glyph glyph-name="at" unicode="@" horiz-adv-x="771" 
d="M404 -166q-167 0 -253.5 85t-86.5 251v171q0 166 81.5 250.5t239.5 84.5t240 -84.5t82 -250.5v-142q0 -36 -6.5 -67t-21.5 -54.5t-39 -36.5t-60 -13q-30 0 -52.5 11t-38.5 30q-17 -19 -43 -30t-61 -11q-36 0 -63.5 11t-46.5 30.5t-28.5 45.5t-9.5 55v171q0 29 9.5 54.5
t28.5 45t46.5 30.5t63.5 11q61 0 94 -32l6 23h55v-312q0 -23 8.5 -38.5t33.5 -15.5q29 0 37 27.5t8 64.5v142q0 131 -62 194t-180 63t-179.5 -63t-61.5 -194v-171q0 -131 66 -194t194 -63v-79zM459 341q0 4 -1 10.5t-3 12.5l1 -1q-5 17 -21 29t-48 12q-40 0 -55 -18.5
t-15 -44.5v-171q0 -26 15 -44.5t55 -18.5q41 0 56.5 18.5t15.5 44.5v171z" />
    <glyph glyph-name="A" unicode="A" 
d="M176 257h143l-58 218q-8 29 -9 58t-5 58q-3 -29 -4 -58t-9 -58l-129 -475h-87l192 700h75l192 -700h-87l-48 176h-131z" />
    <glyph glyph-name="B" unicode="B" horiz-adv-x="464" 
d="M63 700h160q44 0 77.5 -13.5t56.5 -37t34.5 -54.5t11.5 -65v-52q0 -39 -22.5 -71.5t-68.5 -53.5q45 -22 73 -57t28 -74v-52q0 -35 -12 -65.5t-34.5 -54t-56.5 -37t-77 -13.5h-170v700zM148 81h85q46 0 70 26.5t24 62.5v52q0 36 -26.5 61.5t-77.5 25.5h-40l-35 82v-310z
M214 391q51 0 77.5 25.5t26.5 61.5v52q0 36 -24 62.5t-71 26.5h-75v-228h66z" />
    <glyph glyph-name="C" unicode="C" horiz-adv-x="414" 
d="M139 188q0 -107 94 -107h161v-81h-162q-88 0 -133 48.5t-45 139.5v295l85 34v-329zM233 619q-91 0 -94 -98h-85q2 86 47.5 132.5t130.5 46.5h162v-81h-161z" />
    <glyph glyph-name="D" unicode="D" horiz-adv-x="472" 
d="M63 0v700h175q43 0 76.5 -14.5t56.5 -39t34.5 -57t11.5 -69.5v-340q0 -37 -11.5 -69.5t-34.5 -57t-56.5 -39t-76.5 -14.5h-48l-35 81h83q46 0 70 29.5t24 69.5v340q0 40 -24 69.5t-70 29.5h-90v-619h-85z" />
    <glyph glyph-name="E" unicode="E" horiz-adv-x="433" 
d="M148 391v-203q4 -107 95 -107h151v-81h-152q-88 0 -133.5 48.5t-45.5 139.5v512h331v-81h-246v-228h199v-82h-164z" />
    <glyph glyph-name="F" unicode="F" horiz-adv-x="425" 
d="M148 391v-391h-85v700h331v-81h-246v-228h199v-82h-164z" />
    <glyph glyph-name="G" unicode="G" horiz-adv-x="454" 
d="M338 309h-94l-34 82h213v-391h-85v309zM233 0q-88 0 -133.5 48.5t-45.5 139.5v324q0 91 45.5 139.5t133.5 48.5h162v-81h-161q-95 0 -95 -107v-324q0 -107 95 -107h69l35 -81h-105z" />
    <glyph glyph-name="H" unicode="H" horiz-adv-x="495" 
d="M148 392v-392h-85v700h85v-308h199v308h85v-700h-85v308h-164z" />
    <glyph glyph-name="I" unicode="I" horiz-adv-x="211" 
d="M148 700v-700h-85v700h85z" />
    <glyph glyph-name="J" unicode="J" horiz-adv-x="314" 
d="M175 700h85v-512q0 -91 -45 -139.5t-133 -48.5h-68v81h67q94 0 94 107v512z" />
    <glyph glyph-name="K" unicode="K" horiz-adv-x="470" 
d="M148 373v-373h-85v700h85v-309h18l183 309h94l-201 -341l211 -359h-95l-182 309z" />
    <glyph glyph-name="L" unicode="L" horiz-adv-x="405" 
d="M148 700v-619h246v-81h-331v700h85z" />
    <glyph glyph-name="M" unicode="M" horiz-adv-x="581" 
d="M408 700h109v-700h-85v493l-4 -35l-100 -365h-76l-100 365l-5 34q1 -28 1 -57v-58v-377h-85v700h109l92 -332q14 -64 26 -130q6 32 12.5 66t14.5 64z" />
    <glyph glyph-name="N" unicode="N" horiz-adv-x="505" 
d="M166 456l-23 80q2 -40 3.5 -79.5t1.5 -79.5v-377h-85v700h98l177 -456l22 -80q-2 39 -3 79t-1 80v377h85v-700h-98z" />
    <glyph glyph-name="O" unicode="O" 
d="M357 521q-2 52 -26.5 77t-68.5 25h-28q-46 0 -70.5 -27t-24.5 -84v-324q0 -57 24.5 -84t70.5 -27h28q46 0 70.5 27t24.5 84v295l85 34v-329q0 -93 -45.5 -143t-133.5 -50h-30q-88 0 -133.5 50t-45.5 143v324q0 93 45.5 143t133.5 50h30q39 0 72 -11.5t56.5 -33t37 -53.5
t13.5 -73v-13h-85z" />
    <glyph glyph-name="P" unicode="P" horiz-adv-x="439" 
d="M63 0v700h161q44 0 77.5 -14.5t56.5 -39t34.5 -57t11.5 -69.5v-90q0 -36 -11.5 -68.5t-34.5 -57t-56.5 -39t-77.5 -14.5h-40l-35 81v-332h-86zM224 332q47 0 71 29t24 69v90q0 40 -24 69.5t-71 29.5h-75v-287h75z" />
    <glyph glyph-name="Q" unicode="Q" 
d="M206 -150v146q-75 9 -113.5 58t-38.5 134v324q0 93 45.5 143t133.5 50h30q88 0 133.5 -50t45.5 -143v-324q0 -85 -38.5 -134t-112.5 -58v-146h-85zM234 623q-46 0 -70.5 -27t-24.5 -84v-324q0 -92 67 -109v104l85 33v-137q66 15 66 109v324q0 111 -95 111h-28z" />
    <glyph glyph-name="R" unicode="R" horiz-adv-x="455" 
d="M63 586l85 33h-85v81h160q44 0 77.5 -14.5t56.5 -39t34.5 -57t11.5 -69.5v-90q0 -52 -22.5 -94t-68.5 -65l102 -271h-91l-98 251h-42l-35 81v-332h-85v586zM148 332h75q47 0 71 29t24 69v90q0 40 -24 69.5t-71 29.5h-75v-287z" />
    <glyph glyph-name="S" unicode="S" horiz-adv-x="443" 
d="M403 188q0 -91 -46.5 -139.5t-134.5 -48.5h-173v81h173q47 0 71.5 25.5t24.5 79.5q0 33 -9 53.5t-25 34t-37.5 21.5t-45.5 16q-27 9 -54 20.5t-49.5 30t-37.5 47.5t-18 74l84 34v-5q0 -34 9.5 -54.5t25 -33.5t36.5 -21t44 -15q31 -11 60.5 -24.5t52 -36t36 -56
t13.5 -83.5zM221 619q-91 0 -95 -98h-85q2 87 48 133t131 46h162v-81h-161z" />
    <glyph glyph-name="T" unicode="T" horiz-adv-x="417" 
d="M251 619v-619h-85v585l85 34h-222v81h359v-81h-137z" />
    <glyph glyph-name="U" unicode="U" horiz-adv-x="478" 
d="M423 161q0 -34 -12 -64t-35 -52.5t-57.5 -36t-79.5 -13.5t-80 13.5t-58 36t-35 52.5t-12 64v539h85v-539q0 -35 25.5 -59.5t74.5 -24.5q48 0 73.5 24.5t25.5 59.5v539h85v-539z" />
    <glyph glyph-name="V" unicode="V" horiz-adv-x="499" 
d="M392 700h87l-192 -700h-75l-193 700h88l129 -475q7 -24 8.5 -48.5t4.5 -49.5q4 25 5.5 49.5t8.5 48.5z" />
    <glyph glyph-name="W" unicode="W" horiz-adv-x="702" 
d="M248 0h-79l-150 700h86l92 -429q5 -25 7 -50t5 -50q3 25 4.5 50t6.5 50l92 429h79l92 -429q5 -25 6.5 -50t4.5 -50q3 25 5 50t7 50l91 429h86l-149 -700h-79l-92 430q-5 23 -7 45t-5 45q-3 -23 -4.5 -45t-6.5 -45z" />
    <glyph glyph-name="X" unicode="X" horiz-adv-x="479" 
d="M109 0h-90l175 359l-165 341h90l77 -159q13 -26 23 -53t21 -54q11 27 20 54t22 53l78 159h90l-167 -341l176 -359h-90l-78 161q-15 32 -27 64.5t-25 64.5q-13 -32 -25 -64.5t-27 -64.5z" />
    <glyph glyph-name="Y" unicode="Y" horiz-adv-x="465" 
d="M355 700h91l-171 -426v-274h-86v275l-170 425h92l101 -255q8 -19 11.5 -38.5t8.5 -39.5q5 20 9 40t12 39z" />
    <glyph glyph-name="Z" unicode="Z" horiz-adv-x="385" 
d="M120 81h242v-81h-340v59l242 560h-242v81h340v-59z" />
    <glyph glyph-name="bracketleft" unicode="[" horiz-adv-x="344" 
d="M280 -155v-81h-217v983h217v-81h-132v-821h132z" />
    <glyph glyph-name="backslash" unicode="\" horiz-adv-x="547" 
d="M155 747l327 -889h-90l-327 889h90z" />
    <glyph glyph-name="bracketright" unicode="]" horiz-adv-x="344" 
d="M195 -155v821h-132v81h217v-983h-217v81h132z" />
    <glyph glyph-name="asciicircum" unicode="^" horiz-adv-x="447" 
d="M242 750l172 -366h-50l-47 100q-9 18 -22 48.5t-26 63.5t-25 63.5t-19 48.5h-2q-7 -18 -19 -48.5t-25.5 -63.5t-26.5 -63.5t-22 -48.5l-47 -100h-50l174 366h35z" />
    <glyph glyph-name="underscore" unicode="_" horiz-adv-x="499" 
d="M-6 -165v40h510v-40h-510z" />
    <glyph glyph-name="grave" unicode="`" horiz-adv-x="256" 
d="M33 700h110l80 -135h-60z" />
    <glyph glyph-name="a" unicode="a" horiz-adv-x="414" 
d="M40 139q0 37 13 64t34.5 45.5t49.5 29.5t58 16l59 9l32 -72l-79 -14q-35 -6 -61.5 -23.5t-26.5 -55.5q0 -14 2.5 -25.5t11 -20t23.5 -13.5t40 -5q45 0 67.5 24t22.5 59v195q0 29 -20 50t-56 21h-137v77h137q37 0 66 -11.5t48.5 -32t29.5 -47.5t10 -57v-352h-54l-9 34
q-39 -39 -109 -39q-44 0 -73 10.5t-46.5 29.5t-25 45.5t-7.5 58.5z" />
    <glyph glyph-name="b" unicode="b" horiz-adv-x="444" 
d="M228 500q41 0 71.5 -13.5t51 -36t31 -53t10.5 -64.5v-166q0 -34 -10.5 -64.5t-31 -53t-51 -36t-71.5 -13.5h-169v750h79v-250h90zM138 500l36 -77h54q43 0 64 -26.5t21 -63.5v-166q0 -37 -21 -63.5t-64 -26.5h-90v423z" />
    <glyph glyph-name="c" unicode="c" horiz-adv-x="353" 
d="M130 355q-1 -4 -1 -12v-186q0 -33 21.5 -56.5t63.5 -23.5h119v-77h-119q-41 0 -71.5 12.5t-51 34t-31 50t-10.5 60.5v163zM50 356q2 30 13.5 56t32 45.5t50 31t68.5 11.5h119v-77h-119q-38 0 -59 -19t-25 -48h-80z" />
    <glyph glyph-name="d" unicode="d" horiz-adv-x="443" 
d="M305 423h-91q-42 0 -63.5 -26.5t-21.5 -63.5v-166q0 -37 21.5 -63.5t63.5 -26.5h91v673h79v-750h-170q-41 0 -71.5 13.5t-51 36t-31 53t-10.5 64.5v166q0 34 10.5 64.5t31 53t51 36t71.5 13.5h55z" />
    <glyph glyph-name="e" unicode="e" horiz-adv-x="422" 
d="M164 219l-35 76v-147q0 -30 21 -50.5t64 -20.5h146v-77h-146q-41 0 -71.5 11.5t-51 31.5t-31 47t-10.5 58v213q0 30 10.5 56t31 45.5t51 31t71.5 11.5q39 0 69 -10.5t50 -29t30.5 -43t10.5 -52.5v-151h-210zM129 295h166v75q0 24 -20.5 41t-60.5 17q-43 0 -64 -20
t-21 -47v-66z" />
    <glyph glyph-name="f" unicode="f" horiz-adv-x="315" 
d="M129 0h-79v568q0 35 10.5 65.5t31 53t51 35.5t71.5 13h81v-75h-81q-25 0 -41 -8t-25.5 -20.5t-13.5 -29t-5 -34.5v-568zM286 495v-74h-120l-37 74h157z" />
    <glyph glyph-name="g" unicode="g" horiz-adv-x="444" 
d="M305 423h-91q-42 0 -63.5 -26.5t-21.5 -63.5v-166q0 -37 21.5 -63.5t63.5 -26.5h91v423h79v-602q0 -31 -10.5 -58t-31 -47t-51.5 -31.5t-71 -11.5h-147v76h147q42 0 63.5 21t21.5 51v102h-91q-41 0 -71.5 13.5t-51 36t-31 53t-10.5 64.5v166q0 34 10.5 64.5t31 53t51 36
t71.5 13.5h55z" />
    <glyph glyph-name="h" unicode="h" horiz-adv-x="445" 
d="M137 0h-78v731h78v-731zM173 423l-36 77h94q36 0 64 -11t47.5 -30t30 -44.5t10.5 -53.5v-361h-79v361q0 25 -17.5 43.5t-63.5 18.5h-50z" />
    <glyph glyph-name="i" unicode="i" horiz-adv-x="196" 
d="M59 500h78v-500h-78v500zM59 680h78v-102h-78v102z" />
    <glyph glyph-name="j" unicode="j" horiz-adv-x="187" 
d="M54 -250v750h79v-715zM54 680h79v-102h-79v102z" />
    <glyph glyph-name="k" unicode="k" horiz-adv-x="419" 
d="M221 256q19 -29 40.5 -62t43.5 -67t43 -66.5t40 -60.5h-92l-143 219h-16v-219h-78v723l78 27v-455h19q35 50 70.5 103t70.5 102h91z" />
    <glyph glyph-name="l" unicode="l" horiz-adv-x="196" 
d="M137 750v-750h-78v737z" />
    <glyph glyph-name="m" unicode="m" horiz-adv-x="639" 
d="M59 500h371q36 0 64 -12t47.5 -32t30 -47t10.5 -57v-352h-79v352q0 29 -17.5 50t-62.5 21h-63v-423h-79v388l79 35h-223v-423h-78v388l78 35h-78v77z" />
    <glyph glyph-name="n" unicode="n" horiz-adv-x="440" 
d="M59 500h172q36 0 64 -11t47.5 -30t30 -44.5t10.5 -53.5v-361h-79v361q0 25 -17.5 43.5t-63.5 18.5h-164v77zM137 423v-423h-78v388z" />
    <glyph glyph-name="o" unicode="o" horiz-adv-x="435" 
d="M217 72q43 0 65.5 21.5t22.5 50.5v176l79 35v-211q0 -30 -11 -57.5t-32 -47.5t-52.5 -32t-71.5 -12q-41 0 -72 12t-52 32t-32 47.5t-11 57.5v212q0 30 11 57.5t32 47.5t52 32t72 12q40 0 71.5 -12t52.5 -32t32 -47.5t11 -57.5h-79q0 29 -22 50.5t-66 21.5t-66 -21.5
t-22 -50.5v-212q0 -29 22 -50.5t66 -21.5z" />
    <glyph glyph-name="p" unicode="p" horiz-adv-x="443" 
d="M138 77v-327h-79v750h169q41 0 71.5 -11.5t51 -32t31 -47.5t10.5 -57v-204q0 -30 -10.5 -57t-31 -47.5t-51 -32t-71.5 -11.5h-54zM138 77h90q43 0 64 21t21 50v204q0 29 -21 50t-64 21h-90v-346z" />
    <glyph glyph-name="q" unicode="q" horiz-adv-x="444" 
d="M384 500v-750h-79v250h-91q-41 0 -71.5 11.5t-51 32t-31 47.5t-10.5 57v204q0 30 10.5 57t31 47.5t51 32t71.5 11.5h55l36 -77h-91q-42 0 -63.5 -21t-21.5 -50v-204q0 -29 21.5 -50t63.5 -21h91v423h79z" />
    <glyph glyph-name="r" unicode="r" horiz-adv-x="270" 
d="M59 343q0 32 10.5 60.5t31 50t51 34t71.5 12.5h42v-77h-42q-42 0 -63.5 -23.5t-21.5 -56.5v-343h-79v343z" />
    <glyph glyph-name="s" unicode="s" horiz-adv-x="395" 
d="M37 357v7q0 60 41.5 98t117.5 38h136v-77h-136q-38 0 -59 -16t-21 -41v-9h-79zM116 355q2 -15 10 -25.5t20 -17t26.5 -11.5t29.5 -9q39 -12 69 -23t49.5 -27.5t29.5 -40t10 -60.5q0 -68 -42.5 -104.5t-117.5 -36.5h-163v77h162q38 0 60 16t22 45q0 35 -25 50t-73 28
q-19 5 -41 11t-42 17.5t-36 30t-23 47.5z" />
    <glyph glyph-name="t" unicode="t" horiz-adv-x="315" 
d="M129 495h157v-74h-120l-37 74v-310q0 -21 4 -40.5t13.5 -34.5t26 -24t41.5 -9h81v-77h-81q-41 0 -71.5 14.5t-51 39t-31 58.5t-10.5 73v425h79v-115z" />
    <glyph glyph-name="u" unicode="u" horiz-adv-x="439" 
d="M378 500v-356q0 -30 -10.5 -57.5t-30.5 -47.5t-50.5 -32t-69.5 -12q-40 0 -70 12t-50.5 32t-30.5 47.5t-10 57.5v356h78v-356q0 -29 20.5 -50.5t62.5 -21.5q41 0 61.5 21.5t20.5 50.5v356h79z" />
    <glyph glyph-name="v" unicode="v" horiz-adv-x="410" 
d="M314 500h80l-155 -500h-69l-155 500h80l87 -281q8 -27 12.5 -60.5t9.5 -63.5q5 31 9.5 63.5t13.5 60.5z" />
    <glyph glyph-name="w" unicode="w" horiz-adv-x="568" 
d="M549 500l-120 -500h-69l-72 307q-2 10 -2.5 19t-1.5 19q-1 -10 -1.5 -19t-2.5 -19l-72 -307h-68l-121 500h79l71 -307q2 -11 2.5 -21t2.5 -21q2 11 2.5 21t2.5 21l71 307h69l71 -307q2 -11 3 -21t3 -21q1 11 1 21t2 21l71 307h79z" />
    <glyph glyph-name="x" unicode="x" horiz-adv-x="414" 
d="M97 0h-91l154 262l-138 238h89l82 -137l13 -26q4 11 14 26l81 137h89l-139 -237l156 -263h-92l-82 140q-16 26 -27 49l-27 -49z" />
    <glyph glyph-name="y" unicode="y" horiz-adv-x="416" 
d="M181 189q9 -31 13 -63t10 -64q6 32 11 63.5t13 62.5l86 312h78l-205 -750h-78l56 208q-38 131 -77.5 271.5t-76.5 270.5h80z" />
    <glyph glyph-name="z" unicode="z" horiz-adv-x="361" 
d="M126 77h207v-77h-306v56l208 367h-208v77h306v-56z" />
    <glyph glyph-name="braceleft" unicode="{" horiz-adv-x="357" 
d="M63 395q37 0 51.5 23t14.5 53v109q0 36 8.5 67t28 54t50.5 36t76 13h26v-85h-26q-42 0 -60 -24.5t-18 -60.5v-109q0 -35 -18.5 -67t-58.5 -51q42 -20 59.5 -51t17.5 -67v-108q0 -37 18 -61t60 -24h26v-86h-26q-45 0 -76 13t-50.5 36.5t-28 54.5t-8.5 67v108
q0 29 -14.5 52t-51.5 23h-24v85h24z" />
    <glyph glyph-name="bar" unicode="|" horiz-adv-x="203" 
d="M65 -236v983h73v-983h-73z" />
    <glyph glyph-name="braceright" unicode="}" horiz-adv-x="357" 
d="M318 395v-85h-23q-38 0 -52.5 -23t-14.5 -52v-108q0 -36 -8.5 -67t-28 -54.5t-50 -36.5t-75.5 -13h-27v86h27q42 0 59.5 24t17.5 61v108q0 34 20.5 66t56.5 52q-41 20 -59 51.5t-18 66.5v109q0 36 -17.5 60.5t-59.5 24.5h-27v85h27q45 0 75.5 -13t50 -36t28 -54t8.5 -67
v-109q0 -30 14.5 -53t52.5 -23h23z" />
    <glyph glyph-name="exclamdown" unicode="&#xa1;" horiz-adv-x="213" 
d="M58 -200l16 511h65l16 -511h-97zM64 372v128h85v-128h-85z" />
    <glyph glyph-name="dieresis" unicode="&#xa8;" horiz-adv-x="245" 
d="M25 655h75v-90h-75v90zM145 655h75v-90h-75v90z" />
    <glyph glyph-name="copyright" unicode="&#xa9;" horiz-adv-x="558" 
d="M151 410q0 31 8 59t24.5 49t41 33t56.5 12q30 0 53.5 -12.5t39.5 -34t24.5 -50t8.5 -60.5h-73q0 37 -12 61.5t-41 24.5q-32 0 -44.5 -25t-12.5 -57v-125q0 -33 12.5 -58t44.5 -25q29 0 41 24.5t12 62.5h73q0 -33 -8.5 -61.5t-24.5 -50t-39.5 -34t-53.5 -12.5
q-32 0 -56.5 12t-41 33t-24.5 49t-8 60v125zM54 480q0 46 14.5 88t43 73.5t70.5 50t97 18.5t97 -18.5t70.5 -50t43 -73.5t14.5 -88v-260q0 -47 -14.5 -88.5t-43 -73t-70.5 -50t-97 -18.5t-97 18.5t-70.5 50t-43 73t-14.5 88.5v260zM94 220q0 -39 12 -73.5t35.5 -61t58 -42
t79.5 -15.5t79.5 15.5t58 42t35.5 61t12 73.5v260q0 39 -12 73.5t-35.5 61t-58 42t-79.5 15.5t-79.5 -15.5t-58 -42t-35.5 -61t-12 -73.5v-260z" />
    <glyph glyph-name="registered" unicode="&#xae;" horiz-adv-x="558" 
d="M361 142l-81 136h-48v-136h-73v416h129q60 0 95 -37.5t35 -100.5q0 -50 -18 -81t-47 -47l86 -150h-78zM232 354h56q26 0 41.5 17.5t15.5 48.5t-15.5 48.5t-41.5 17.5h-56v-132zM54 480q0 46 14.5 88t43 73.5t70.5 50t97 18.5t97 -18.5t70.5 -50t43 -73.5t14.5 -88v-260
q0 -47 -14.5 -88.5t-43 -73t-70.5 -50t-97 -18.5t-97 18.5t-70.5 50t-43 73t-14.5 88.5v260zM94 220q0 -39 12 -73.5t35.5 -61t58 -42t79.5 -15.5t79.5 15.5t58 42t35.5 61t12 73.5v260q0 39 -12 73.5t-35.5 61t-58 42t-79.5 15.5t-79.5 -15.5t-58 -42t-35.5 -61t-12 -73.5
v-260z" />
    <glyph glyph-name="macron" unicode="&#xaf;" horiz-adv-x="395" 
d="M45 631h305v-42h-305v42z" />
    <glyph glyph-name="degree" unicode="&#xb0;" horiz-adv-x="336" 
d="M168 464q-56 0 -85 35t-29 83v10q0 48 29 83t85 35t85 -35t29 -83v-10q0 -48 -29 -83t-85 -35zM168 509q35 0 51 22t16 51v10q0 29 -16 51t-51 22t-51 -21t-16 -52v-10q0 -31 16 -52t51 -21z" />
    <glyph glyph-name="plusminus" unicode="&#xb1;" horiz-adv-x="582" 
d="M58 434h190v191h85v-191h189v-81h-189v-191h-85v191h-190v81zM58 81h464v-81h-464v81z" />
    <glyph glyph-name="acute" unicode="&#xb4;" horiz-adv-x="256" 
d="M93 565h-60l80 135h110z" />
    <glyph glyph-name="periodcentered" unicode="&#xb7;" horiz-adv-x="171" 
d="M63 229v43h45v-43h-45z" />
    <glyph glyph-name="cedilla" unicode="&#xb8;" horiz-adv-x="261" 
d="M116 16q8 -1 15.5 -1.5t15.5 -0.5l-19 -61q23 -1 38.5 -8.5t24.5 -17.5t12.5 -21.5t3.5 -21.5q0 -11 -4.5 -23t-14 -21.5t-24.5 -16t-36 -6.5q-10 0 -31.5 1.5t-42.5 12.5l10 27q17 -7 32.5 -9t26.5 -2q16 0 29.5 8.5t13.5 28.5q0 18 -15 28.5t-38 10.5h-6l-16 13z" />
    <glyph glyph-name="questiondown" unicode="&#xbf;" horiz-adv-x="435" 
d="M135 -20q0 -56 21 -76t59 -20h171v-83h-172q-39 0 -69.5 9.5t-51.5 31t-32 56.5t-11 87q0 27 5 47t14 36.5t21.5 32t28.5 33.5l32 36q13 19 20.5 35t12 32.5t6 34t1.5 40.5h85q0 -32 -1.5 -54.5t-7 -43t-17 -42t-32.5 -51.5l-23 -25q-27 -29 -43.5 -53.5t-16.5 -62.5z
M191 373v128h85v-128h-85z" />
    <glyph glyph-name="Agrave" unicode="&#xc0;" 
d="M176 257h143l-58 218q-8 29 -9 58t-5 58q-3 -29 -4 -58t-9 -58l-129 -475h-87l192 700h75l192 -700h-87l-48 176h-131zM115 900h110l80 -135h-60z" />
    <glyph glyph-name="Aacute" unicode="&#xc1;" 
d="M176 257h143l-58 218q-8 29 -9 58t-5 58q-3 -29 -4 -58t-9 -58l-129 -475h-87l192 700h75l192 -700h-87l-48 176h-131zM255 765h-60l80 135h110z" />
    <glyph glyph-name="Acircumflex" unicode="&#xc2;" 
d="M176 257h143l-58 218q-8 29 -9 58t-5 58q-3 -29 -4 -58t-9 -58l-129 -475h-87l192 700h75l192 -700h-87l-48 176h-131zM384 765h-70l-68 69l-69 -69h-70l109 135h60z" />
    <glyph glyph-name="Atilde" unicode="&#xc3;" 
d="M176 257h143l-58 218q-8 29 -9 58t-5 58q-3 -29 -4 -58t-9 -58l-129 -475h-87l192 700h75l192 -700h-87l-48 176h-131zM302 809q24 0 59 33l24 -42q-24 -21 -44 -32.5t-37 -11.5q-24 0 -73 25q-47 25 -61 25q-28 0 -63 -31l-22 42q44 43 84 43q26 0 70 -26
q23 -14 38.5 -19.5t24.5 -5.5z" />
    <glyph glyph-name="Adieresis" unicode="&#xc4;" 
d="M176 257h143l-58 218q-8 29 -9 58t-5 58q-3 -29 -4 -58t-9 -58l-129 -475h-87l192 700h75l192 -700h-87l-48 176h-131zM138 855h75v-90h-75v90zM258 855h75v-90h-75v90z" />
    <glyph glyph-name="Aring" unicode="&#xc5;" 
d="M176 257h143l-58 218q-8 29 -9 58t-5 58q-3 -29 -4 -58t-9 -58l-129 -475h-87l192 700h75l192 -700h-87l-48 176h-131zM145 810q0 38 26 64t64 26t64 -26t26 -64t-26 -64t-64 -26t-64 26t-26 64zM185 810q0 -21 14.5 -35.5t35.5 -14.5t35.5 14.5t14.5 35.5t-14.5 35.5
t-35.5 14.5t-35.5 -14.5t-14.5 -35.5z" />
    <glyph glyph-name="AE" unicode="&#xc6;" horiz-adv-x="608" 
d="M568 81v-81h-283v176h-133q-11 -42 -23.5 -88.5t-23.5 -87.5h-87l192 700h358v-81h-198v-228h151v-82h-151v-228h198zM175 257h110v363h-22l-7 -41q-4 -26 -9 -52.5t-13 -51.5z" />
    <glyph glyph-name="Ccedilla" unicode="&#xc7;" horiz-adv-x="414" 
d="M139 188q0 -107 94 -107h161v-81h-111l-14 -47q23 -1 38.5 -8.5t24.5 -17.5t12.5 -21.5t3.5 -21.5q0 -11 -4.5 -23t-14 -21.5t-24.5 -16t-36 -6.5q-10 0 -31.5 1.5t-42.5 12.5l10 27q17 -7 32.5 -9t26.5 -2q16 0 29.5 8.5t13.5 28.5q0 18 -15 28.5t-38 10.5h-6l-16 13
l20 64h-20q-88 0 -133 48.5t-45 139.5v295l85 34v-329zM233 619q-91 0 -94 -98h-85q2 86 47.5 132.5t130.5 46.5h162v-81h-161z" />
    <glyph glyph-name="Egrave" unicode="&#xc8;" horiz-adv-x="433" 
d="M148 391v-203q4 -107 95 -107h151v-81h-152q-88 0 -133.5 48.5t-45.5 139.5v512h331v-81h-246v-228h199v-82h-164zM86 900h110l80 -135h-60z" />
    <glyph glyph-name="Eacute" unicode="&#xc9;" horiz-adv-x="433" 
d="M148 391v-203q4 -107 95 -107h151v-81h-152q-88 0 -133.5 48.5t-45.5 139.5v512h331v-81h-246v-228h199v-82h-164zM226 765h-60l80 135h110z" />
    <glyph glyph-name="Ecircumflex" unicode="&#xca;" horiz-adv-x="433" 
d="M148 391v-203q4 -107 95 -107h151v-81h-152q-88 0 -133.5 48.5t-45.5 139.5v512h331v-81h-246v-228h199v-82h-164zM354 765h-70l-68 69l-69 -69h-70l109 135h60z" />
    <glyph glyph-name="Edieresis" unicode="&#xcb;" horiz-adv-x="433" 
d="M148 391v-203q4 -107 95 -107h151v-81h-152q-88 0 -133.5 48.5t-45.5 139.5v512h331v-81h-246v-228h199v-82h-164zM119 855h75v-90h-75v90zM239 855h75v-90h-75v90z" />
    <glyph glyph-name="Igrave" unicode="&#xcc;" horiz-adv-x="206" 
d="M148 700v-700h-85v700h85zM-31 900h110l80 -135h-60z" />
    <glyph glyph-name="Iacute" unicode="&#xcd;" horiz-adv-x="211" 
d="M148 700v-700h-85v700h85zM118 765h-60l80 135h110z" />
    <glyph glyph-name="Icircumflex" unicode="&#xce;" horiz-adv-x="196" 
d="M148 700v-700h-85v700h85zM238 765h-70l-68 69l-69 -69h-70l109 135h60z" />
    <glyph glyph-name="Idieresis" unicode="&#xcf;" horiz-adv-x="176" 
d="M148 700v-700h-85v700h85zM-8 855h75v-90h-75v90zM112 855h75v-90h-75v90z" />
    <glyph glyph-name="Eth" unicode="&#xd0;" horiz-adv-x="466" 
d="M57 0v309h-59v83h59v308h175q43 0 76.5 -14.5t56.5 -39t34.5 -57t11.5 -69.5v-340q0 -37 -11.5 -69.5t-34.5 -57t-56.5 -39t-76.5 -14.5h-48l-35 81h83q46 0 70 29.5t24 69.5v340q0 40 -24 69.5t-70 29.5h-90v-227h101v-83h-101v-309h-85z" />
    <glyph glyph-name="Ntilde" unicode="&#xd1;" horiz-adv-x="505" 
d="M166 456l-23 80q2 -40 3.5 -79.5t1.5 -79.5v-377h-85v700h98l177 -456l22 -80q-2 39 -3 79t-1 80v377h85v-700h-98zM310 809q24 0 59 33l24 -42q-24 -21 -44 -32.5t-37 -11.5q-24 0 -73 25q-47 25 -61 25q-28 0 -63 -31l-22 42q44 43 84 43q26 0 70 -26
q23 -14 38.5 -19.5t24.5 -5.5z" />
    <glyph glyph-name="Ograve" unicode="&#xd2;" 
d="M357 521q-2 52 -26.5 77t-68.5 25h-28q-46 0 -70.5 -27t-24.5 -84v-324q0 -57 24.5 -84t70.5 -27h28q46 0 70.5 27t24.5 84v295l85 34v-329q0 -93 -45.5 -143t-133.5 -50h-30q-88 0 -133.5 50t-45.5 143v324q0 93 45.5 143t133.5 50h30q39 0 72 -11.5t56.5 -33t37 -53.5
t13.5 -73v-13h-85zM109 900h110l80 -135h-60z" />
    <glyph glyph-name="Oacute" unicode="&#xd3;" 
d="M357 521q-2 52 -26.5 77t-68.5 25h-28q-46 0 -70.5 -27t-24.5 -84v-324q0 -57 24.5 -84t70.5 -27h28q46 0 70.5 27t24.5 84v295l85 34v-329q0 -93 -45.5 -143t-133.5 -50h-30q-88 0 -133.5 50t-45.5 143v324q0 93 45.5 143t133.5 50h30q39 0 72 -11.5t56.5 -33t37 -53.5
t13.5 -73v-13h-85zM249 765h-60l80 135h110z" />
    <glyph glyph-name="Ocircumflex" unicode="&#xd4;" 
d="M357 521q-2 52 -26.5 77t-68.5 25h-28q-46 0 -70.5 -27t-24.5 -84v-324q0 -57 24.5 -84t70.5 -27h28q46 0 70.5 27t24.5 84v295l85 34v-329q0 -93 -45.5 -143t-133.5 -50h-30q-88 0 -133.5 50t-45.5 143v324q0 93 45.5 143t133.5 50h30q39 0 72 -11.5t56.5 -33t37 -53.5
t13.5 -73v-13h-85zM378 765h-70l-68 69l-69 -69h-70l109 135h60z" />
    <glyph glyph-name="Otilde" unicode="&#xd5;" 
d="M357 521q-2 52 -26.5 77t-68.5 25h-28q-46 0 -70.5 -27t-24.5 -84v-324q0 -57 24.5 -84t70.5 -27h28q46 0 70.5 27t24.5 84v295l85 34v-329q0 -93 -45.5 -143t-133.5 -50h-30q-88 0 -133.5 50t-45.5 143v324q0 93 45.5 143t133.5 50h30q39 0 72 -11.5t56.5 -33t37 -53.5
t13.5 -73v-13h-85zM296 809q24 0 59 33l24 -42q-24 -21 -44 -32.5t-37 -11.5q-24 0 -73 25q-47 25 -61 25q-28 0 -63 -31l-22 42q44 43 84 43q26 0 70 -26q23 -14 38.5 -19.5t24.5 -5.5z" />
    <glyph glyph-name="Odieresis" unicode="&#xd6;" 
d="M357 521q-2 52 -26.5 77t-68.5 25h-28q-46 0 -70.5 -27t-24.5 -84v-324q0 -57 24.5 -84t70.5 -27h28q46 0 70.5 27t24.5 84v295l85 34v-329q0 -93 -45.5 -143t-133.5 -50h-30q-88 0 -133.5 50t-45.5 143v324q0 93 45.5 143t133.5 50h30q39 0 72 -11.5t56.5 -33t37 -53.5
t13.5 -73v-13h-85zM132 855h75v-90h-75v90zM252 855h75v-90h-75v90z" />
    <glyph glyph-name="multiply" unicode="&#xd7;" horiz-adv-x="568" 
d="M108 207l141 141l-143 143l36 36l143 -143l141 141l32 -32l-141 -141l143 -143l-36 -36l-143 143l-141 -141z" />
    <glyph glyph-name="Oslash" unicode="&#xd8;" horiz-adv-x="478" 
d="M253 77q46 0 70.5 27t24.5 84v282l85 34v-316q0 -93 -45.5 -143t-133.5 -50h-30q-72 0 -115 33l-35 -76l-34 16l41 89q-36 48 -36 131v324q0 93 45.5 143t133.5 50h30q68 0 114 -34l36 77l34 -16l-41 -87q36 -44 36 -111v-22h-85q0 6 -0.5 12.5t-1.5 11.5l-198 -424
q23 -35 77 -35h28zM130 188v-13t1 -12l198 425q-24 35 -76 35h-28q-46 0 -70.5 -27t-24.5 -84v-324z" />
    <glyph glyph-name="Ugrave" unicode="&#xd9;" horiz-adv-x="478" 
d="M423 161q0 -34 -12 -64t-35 -52.5t-57.5 -36t-79.5 -13.5t-80 13.5t-58 36t-35 52.5t-12 64v539h85v-539q0 -35 25.5 -59.5t74.5 -24.5q48 0 73.5 24.5t25.5 59.5v539h85v-539zM109 900h110l80 -135h-60z" />
    <glyph glyph-name="Uacute" unicode="&#xda;" horiz-adv-x="478" 
d="M423 161q0 -34 -12 -64t-35 -52.5t-57.5 -36t-79.5 -13.5t-80 13.5t-58 36t-35 52.5t-12 64v539h85v-539q0 -35 25.5 -59.5t74.5 -24.5q48 0 73.5 24.5t25.5 59.5v539h85v-539zM249 765h-60l80 135h110z" />
    <glyph glyph-name="Ucircumflex" unicode="&#xdb;" horiz-adv-x="478" 
d="M423 161q0 -34 -12 -64t-35 -52.5t-57.5 -36t-79.5 -13.5t-80 13.5t-58 36t-35 52.5t-12 64v539h85v-539q0 -35 25.5 -59.5t74.5 -24.5q48 0 73.5 24.5t25.5 59.5v539h85v-539zM378 765h-70l-68 69l-69 -69h-70l109 135h60z" />
    <glyph glyph-name="Udieresis" unicode="&#xdc;" horiz-adv-x="478" 
d="M423 161q0 -34 -12 -64t-35 -52.5t-57.5 -36t-79.5 -13.5t-80 13.5t-58 36t-35 52.5t-12 64v539h85v-539q0 -35 25.5 -59.5t74.5 -24.5q48 0 73.5 24.5t25.5 59.5v539h85v-539zM132 855h75v-90h-75v90zM252 855h75v-90h-75v90z" />
    <glyph glyph-name="Yacute" unicode="&#xdd;" horiz-adv-x="465" 
d="M355 700h91l-171 -426v-274h-86v275l-170 425h92l101 -255q8 -19 11.5 -38.5t8.5 -39.5q5 20 9 40t12 39zM234 765h-60l80 135h110z" />
    <glyph glyph-name="Thorn" unicode="&#xde;" horiz-adv-x="439" 
d="M149 202v-202h-86v700h86v-120h75q44 0 77.5 -14.5t56.5 -39t34.5 -57t11.5 -69.5v-99q0 -37 -11.5 -69.5t-34.5 -57t-56.5 -39t-77.5 -14.5h-40zM149 202h75q47 0 71 29.5t24 69.5v99q0 40 -24 69.5t-71 29.5h-75v-297z" />
    <glyph glyph-name="germandbls" unicode="&#xdf;" horiz-adv-x="440" 
d="M231 80q38 0 58.5 22.5t20.5 54.5v88q0 14 -5.5 29.5t-17.5 28t-31.5 20.5t-47.5 8h-7l-33 79h40q25 0 42.5 8t28.5 20.5t16 27.5t5 29v51q0 26 -20 45t-58 19q-42 0 -63 -19t-21 -45v-546h-83v423h-48v77h48v46q0 30 11 56t32 45.5t52 31t72 11.5q39 0 69.5 -11.5
t51 -31t31 -45.5t10.5 -56v-51q0 -35 -21 -68t-63 -55q51 -20 72 -54t21 -73v-88q0 -32 -10.5 -60.5t-31 -50t-51 -34t-69.5 -12.5h-56v80h56z" />
    <glyph glyph-name="agrave" unicode="&#xe0;" horiz-adv-x="419" 
d="M40 139q0 37 13 64t34.5 45.5t49.5 29.5t58 16l59 9l32 -72l-79 -14q-35 -6 -61.5 -23.5t-26.5 -55.5q0 -14 2.5 -25.5t11 -20t23.5 -13.5t40 -5q45 0 67.5 24t22.5 59v195q0 29 -20 50t-56 21h-137v77h137q37 0 66 -11.5t48.5 -32t29.5 -47.5t10 -57v-352h-54l-9 34
q-39 -39 -109 -39q-44 0 -73 10.5t-46.5 29.5t-25 45.5t-7.5 58.5zM82 700h110l80 -135h-60z" />
    <glyph glyph-name="aacute" unicode="&#xe1;" horiz-adv-x="419" 
d="M40 139q0 37 13 64t34.5 45.5t49.5 29.5t58 16l59 9l32 -72l-79 -14q-35 -6 -61.5 -23.5t-26.5 -55.5q0 -14 2.5 -25.5t11 -20t23.5 -13.5t40 -5q45 0 67.5 24t22.5 59v195q0 29 -20 50t-56 21h-137v77h137q37 0 66 -11.5t48.5 -32t29.5 -47.5t10 -57v-352h-54l-9 34
q-39 -39 -109 -39q-44 0 -73 10.5t-46.5 29.5t-25 45.5t-7.5 58.5zM222 565h-60l80 135h110z" />
    <glyph glyph-name="acircumflex" unicode="&#xe2;" horiz-adv-x="419" 
d="M40 139q0 37 13 64t34.5 45.5t49.5 29.5t58 16l59 9l32 -72l-79 -14q-35 -6 -61.5 -23.5t-26.5 -55.5q0 -14 2.5 -25.5t11 -20t23.5 -13.5t40 -5q45 0 67.5 24t22.5 59v195q0 29 -20 50t-56 21h-137v77h137q37 0 66 -11.5t48.5 -32t29.5 -47.5t10 -57v-352h-54l-9 34
q-39 -39 -109 -39q-44 0 -73 10.5t-46.5 29.5t-25 45.5t-7.5 58.5zM351 565h-70l-68 69l-69 -69h-70l109 135h60z" />
    <glyph glyph-name="atilde" unicode="&#xe3;" horiz-adv-x="420" 
d="M40 139q0 37 13 64t34.5 45.5t49.5 29.5t58 16l59 9l32 -72l-79 -14q-35 -6 -61.5 -23.5t-26.5 -55.5q0 -14 2.5 -25.5t11 -20t23.5 -13.5t40 -5q45 0 67.5 24t22.5 59v195q0 29 -20 50t-56 21h-137v77h137q37 0 66 -11.5t48.5 -32t29.5 -47.5t10 -57v-352h-54l-9 34
q-39 -39 -109 -39q-44 0 -73 10.5t-46.5 29.5t-25 45.5t-7.5 58.5zM269 609q24 0 59 33l24 -42q-24 -21 -44 -32.5t-37 -11.5q-24 0 -73 25q-47 25 -61 25q-28 0 -63 -31l-22 42q44 43 84 43q26 0 70 -26q23 -14 38.5 -19.5t24.5 -5.5z" />
    <glyph glyph-name="adieresis" unicode="&#xe4;" horiz-adv-x="419" 
d="M40 139q0 37 13 64t34.5 45.5t49.5 29.5t58 16l59 9l32 -72l-79 -14q-35 -6 -61.5 -23.5t-26.5 -55.5q0 -14 2.5 -25.5t11 -20t23.5 -13.5t40 -5q45 0 67.5 24t22.5 59v195q0 29 -20 50t-56 21h-137v77h137q37 0 66 -11.5t48.5 -32t29.5 -47.5t10 -57v-352h-54l-9 34
q-39 -39 -109 -39q-44 0 -73 10.5t-46.5 29.5t-25 45.5t-7.5 58.5zM105 655h75v-90h-75v90zM225 655h75v-90h-75v90z" />
    <glyph glyph-name="aring" unicode="&#xe5;" horiz-adv-x="419" 
d="M40 139q0 37 13 64t34.5 45.5t49.5 29.5t58 16l59 9l32 -72l-79 -14q-35 -6 -61.5 -23.5t-26.5 -55.5q0 -14 2.5 -25.5t11 -20t23.5 -13.5t40 -5q45 0 67.5 24t22.5 59v195q0 29 -20 50t-56 21h-137v77h137q37 0 66 -11.5t48.5 -32t29.5 -47.5t10 -57v-352h-54l-9 34
q-39 -39 -109 -39q-44 0 -73 10.5t-46.5 29.5t-25 45.5t-7.5 58.5zM112 610q0 38 26 64t64 26t64 -26t26 -64t-26 -64t-64 -26t-64 26t-26 64zM152 610q0 -21 14.5 -35.5t35.5 -14.5t35.5 14.5t14.5 35.5t-14.5 35.5t-35.5 14.5t-35.5 -14.5t-14.5 -35.5z" />
    <glyph glyph-name="ae" unicode="&#xe6;" horiz-adv-x="657" 
d="M449 0q-45 0 -76.5 18t-48.5 47q-18 -33 -49.5 -51.5t-82.5 -18.5q-44 0 -73 10.5t-46.5 29.5t-25 45.5t-7.5 58.5q0 37 12.5 64t34 45.5t49.5 29.5t59 16l91 15v43q0 29 -20 50t-56 21h-137v77h137q39 0 67 -16t45 -43q17 31 48.5 49.5t78.5 18.5q39 0 68.5 -11t50 -30
t31 -44.5t10.5 -53.5v-151h-246v-71q0 -30 21.5 -50.5t64.5 -20.5h146v-77h-146zM363 295h167v75q0 26 -21 44t-60 18q-43 0 -64.5 -21t-21.5 -50v-66zM196 74q45 0 67.5 24t22.5 59v74l-79 -14q-35 -6 -61.5 -23.5t-26.5 -55.5q0 -14 2.5 -25.5t11 -20t23.5 -13.5t40 -5z
" />
    <glyph glyph-name="ccedilla" unicode="&#xe7;" horiz-adv-x="353" 
d="M130 355q-1 -4 -1 -12v-186q0 -33 21.5 -56.5t63.5 -23.5h119v-77h-98l-14 -47q23 -1 38.5 -8.5t24.5 -17.5t12.5 -21.5t3.5 -21.5q0 -11 -4.5 -23t-14 -21.5t-24.5 -16t-36 -6.5q-10 0 -31.5 1.5t-42.5 12.5l10 27q17 -7 32.5 -9t26.5 -2q16 0 29.5 8.5t13.5 28.5
q0 18 -15 28.5t-38 10.5h-6l-16 13l19 64q-38 1 -66.5 14.5t-48 34.5t-29 49t-9.5 59v163zM50 356q2 30 13.5 56t32 45.5t50 31t68.5 11.5h119v-77h-119q-38 0 -59 -19t-25 -48h-80z" />
    <glyph glyph-name="egrave" unicode="&#xe8;" horiz-adv-x="422" 
d="M164 219l-35 76v-147q0 -30 21 -50.5t64 -20.5h146v-77h-146q-41 0 -71.5 11.5t-51 31.5t-31 47t-10.5 58v213q0 30 10.5 56t31 45.5t51 31t71.5 11.5q39 0 69 -10.5t50 -29t30.5 -43t10.5 -52.5v-151h-210zM129 295h166v75q0 24 -20.5 41t-60.5 17q-43 0 -64 -20
t-21 -47v-66zM84 700h110l80 -135h-60z" />
    <glyph glyph-name="eacute" unicode="&#xe9;" horiz-adv-x="422" 
d="M164 219l-35 76v-147q0 -30 21 -50.5t64 -20.5h146v-77h-146q-41 0 -71.5 11.5t-51 31.5t-31 47t-10.5 58v213q0 30 10.5 56t31 45.5t51 31t71.5 11.5q39 0 69 -10.5t50 -29t30.5 -43t10.5 -52.5v-151h-210zM129 295h166v75q0 24 -20.5 41t-60.5 17q-43 0 -64 -20
t-21 -47v-66zM224 565h-60l80 135h110z" />
    <glyph glyph-name="ecircumflex" unicode="&#xea;" horiz-adv-x="422" 
d="M164 219l-35 76v-147q0 -30 21 -50.5t64 -20.5h146v-77h-146q-41 0 -71.5 11.5t-51 31.5t-31 47t-10.5 58v213q0 30 10.5 56t31 45.5t51 31t71.5 11.5q39 0 69 -10.5t50 -29t30.5 -43t10.5 -52.5v-151h-210zM129 295h166v75q0 24 -20.5 41t-60.5 17q-43 0 -64 -20
t-21 -47v-66zM352 565h-70l-68 69l-69 -69h-70l109 135h60z" />
    <glyph glyph-name="edieresis" unicode="&#xeb;" horiz-adv-x="422" 
d="M164 219l-35 76v-147q0 -30 21 -50.5t64 -20.5h146v-77h-146q-41 0 -71.5 11.5t-51 31.5t-31 47t-10.5 58v213q0 30 10.5 56t31 45.5t51 31t71.5 11.5q39 0 69 -10.5t50 -29t30.5 -43t10.5 -52.5v-151h-210zM129 295h166v75q0 24 -20.5 41t-60.5 17q-43 0 -64 -20
t-21 -47v-66zM106 655h75v-90h-75v90zM226 655h75v-90h-75v90z" />
    <glyph glyph-name="igrave" unicode="&#xec;" horiz-adv-x="193" 
d="M59 500h78v-500h-78v500zM-37 700h110l80 -135h-60z" />
    <glyph glyph-name="iacute" unicode="&#xed;" horiz-adv-x="193" 
d="M59 500h78v-500h-78v500zM104 565h-60l80 135h110z" />
    <glyph glyph-name="icircumflex" unicode="&#xee;" horiz-adv-x="183" 
d="M59 500h78v-500h-78v500zM231 565h-70l-68 69l-69 -69h-70l109 135h60z" />
    <glyph glyph-name="idieresis" unicode="&#xef;" horiz-adv-x="163" 
d="M59 500h78v-500h-78v500zM-15 655h75v-90h-75v90zM105 655h75v-90h-75v90z" />
    <glyph glyph-name="eth" unicode="&#xf0;" horiz-adv-x="435" 
d="M268 500l37 -75h-91q-41 0 -63 -20t-22 -49v-212q0 -29 22 -50.5t66 -21.5q43 0 65.5 21.5t22.5 50.5v385q0 40 -18.5 62t-39.5 33l-30 -90l-73 25l29 87q-26 6 -55.5 14.5t-52.5 14.5l19 73l115 -28l24 69l73 -25l-23 -65q19 -8 39 -20.5t36 -32.5t26 -48t10 -67v-387
q0 -30 -11 -57.5t-32 -47.5t-52.5 -32t-71.5 -12q-41 0 -72 12t-52 32t-32 47.5t-11 57.5v212q0 29 11 55.5t32 46t51.5 31t69.5 11.5h54z" />
    <glyph glyph-name="ntilde" unicode="&#xf1;" horiz-adv-x="440" 
d="M59 500h172q36 0 64 -11t47.5 -30t30 -44.5t10.5 -53.5v-361h-79v361q0 25 -17.5 43.5t-63.5 18.5h-164v77zM137 423v-423h-78v388zM280 609q24 0 59 33l24 -42q-24 -21 -44 -32.5t-37 -11.5q-24 0 -73 25q-47 25 -61 25q-28 0 -63 -31l-22 42q44 43 84 43q26 0 70 -26
q23 -14 38.5 -19.5t24.5 -5.5z" />
    <glyph glyph-name="ograve" unicode="&#xf2;" horiz-adv-x="435" 
d="M217 72q43 0 65.5 21.5t22.5 50.5v176l79 35v-211q0 -30 -11 -57.5t-32 -47.5t-52.5 -32t-71.5 -12q-41 0 -72 12t-52 32t-32 47.5t-11 57.5v212q0 30 11 57.5t32 47.5t52 32t72 12q40 0 71.5 -12t52.5 -32t32 -47.5t11 -57.5h-79q0 29 -22 50.5t-66 21.5t-66 -21.5
t-22 -50.5v-212q0 -29 22 -50.5t66 -21.5zM90 700h110l80 -135h-60z" />
    <glyph glyph-name="oacute" unicode="&#xf3;" horiz-adv-x="435" 
d="M217 72q43 0 65.5 21.5t22.5 50.5v176l79 35v-211q0 -30 -11 -57.5t-32 -47.5t-52.5 -32t-71.5 -12q-41 0 -72 12t-52 32t-32 47.5t-11 57.5v212q0 30 11 57.5t32 47.5t52 32t72 12q40 0 71.5 -12t52.5 -32t32 -47.5t11 -57.5h-79q0 29 -22 50.5t-66 21.5t-66 -21.5
t-22 -50.5v-212q0 -29 22 -50.5t66 -21.5zM230 565h-60l80 135h110z" />
    <glyph glyph-name="ocircumflex" unicode="&#xf4;" horiz-adv-x="435" 
d="M217 72q43 0 65.5 21.5t22.5 50.5v176l79 35v-211q0 -30 -11 -57.5t-32 -47.5t-52.5 -32t-71.5 -12q-41 0 -72 12t-52 32t-32 47.5t-11 57.5v212q0 30 11 57.5t32 47.5t52 32t72 12q40 0 71.5 -12t52.5 -32t32 -47.5t11 -57.5h-79q0 29 -22 50.5t-66 21.5t-66 -21.5
t-22 -50.5v-212q0 -29 22 -50.5t66 -21.5zM359 565h-70l-68 69l-69 -69h-70l109 135h60z" />
    <glyph glyph-name="otilde" unicode="&#xf5;" horiz-adv-x="435" 
d="M217 72q43 0 65.5 21.5t22.5 50.5v176l79 35v-211q0 -30 -11 -57.5t-32 -47.5t-52.5 -32t-71.5 -12q-41 0 -72 12t-52 32t-32 47.5t-11 57.5v212q0 30 11 57.5t32 47.5t52 32t72 12q40 0 71.5 -12t52.5 -32t32 -47.5t11 -57.5h-79q0 29 -22 50.5t-66 21.5t-66 -21.5
t-22 -50.5v-212q0 -29 22 -50.5t66 -21.5zM277 609q24 0 59 33l24 -42q-24 -21 -44 -32.5t-37 -11.5q-24 0 -73 25q-47 25 -61 25q-28 0 -63 -31l-22 42q44 43 84 43q26 0 70 -26q23 -14 38.5 -19.5t24.5 -5.5z" />
    <glyph glyph-name="odieresis" unicode="&#xf6;" horiz-adv-x="435" 
d="M217 72q43 0 65.5 21.5t22.5 50.5v176l79 35v-211q0 -30 -11 -57.5t-32 -47.5t-52.5 -32t-71.5 -12q-41 0 -72 12t-52 32t-32 47.5t-11 57.5v212q0 30 11 57.5t32 47.5t52 32t72 12q40 0 71.5 -12t52.5 -32t32 -47.5t11 -57.5h-79q0 29 -22 50.5t-66 21.5t-66 -21.5
t-22 -50.5v-212q0 -29 22 -50.5t66 -21.5zM113 655h75v-90h-75v90zM233 655h75v-90h-75v90z" />
    <glyph glyph-name="oslash" unicode="&#xf8;" horiz-adv-x="421" 
d="M210 72q43 0 65.5 21.5t22.5 50.5v176l79 35v-211q0 -30 -11 -57.5t-32 -47.5t-52.5 -32t-71.5 -12q-42 0 -72.5 12t-52.5 32l-44 -63l-31 23l51 73q-18 31 -18 72v212q0 30 11 57.5t32 47.5t52 32t72 12t71.5 -12t52.5 -32l45 64l31 -23l-52 -73q19 -35 19 -73h-70
l-175 -249q11 -16 30 -25.5t48 -9.5zM122 159l165 235q-11 15 -30 24.5t-47 9.5q-44 0 -66 -21.5t-22 -50.5v-197z" />
    <glyph glyph-name="ugrave" unicode="&#xf9;" horiz-adv-x="439" 
d="M378 500v-356q0 -30 -10.5 -57.5t-30.5 -47.5t-50.5 -32t-69.5 -12q-40 0 -70 12t-50.5 32t-30.5 47.5t-10 57.5v356h78v-356q0 -29 20.5 -50.5t62.5 -21.5q41 0 61.5 21.5t20.5 50.5v356h79zM92 700h110l80 -135h-60z" />
    <glyph glyph-name="uacute" unicode="&#xfa;" horiz-adv-x="439" 
d="M378 500v-356q0 -30 -10.5 -57.5t-30.5 -47.5t-50.5 -32t-69.5 -12q-40 0 -70 12t-50.5 32t-30.5 47.5t-10 57.5v356h78v-356q0 -29 20.5 -50.5t62.5 -21.5q41 0 61.5 21.5t20.5 50.5v356h79zM232 565h-60l80 135h110z" />
    <glyph glyph-name="ucircumflex" unicode="&#xfb;" horiz-adv-x="439" 
d="M378 500v-356q0 -30 -10.5 -57.5t-30.5 -47.5t-50.5 -32t-69.5 -12q-40 0 -70 12t-50.5 32t-30.5 47.5t-10 57.5v356h78v-356q0 -29 20.5 -50.5t62.5 -21.5q41 0 61.5 21.5t20.5 50.5v356h79zM361 565h-70l-68 69l-69 -69h-70l109 135h60z" />
    <glyph glyph-name="udieresis" unicode="&#xfc;" horiz-adv-x="439" 
d="M378 500v-356q0 -30 -10.5 -57.5t-30.5 -47.5t-50.5 -32t-69.5 -12q-40 0 -70 12t-50.5 32t-30.5 47.5t-10 57.5v356h78v-356q0 -29 20.5 -50.5t62.5 -21.5q41 0 61.5 21.5t20.5 50.5v356h79zM115 655h75v-90h-75v90zM235 655h75v-90h-75v90z" />
    <glyph glyph-name="yacute" unicode="&#xfd;" horiz-adv-x="416" 
d="M181 189q9 -31 13 -63t10 -64q6 32 11 63.5t13 62.5l86 312h78l-205 -750h-78l56 208q-38 131 -77.5 271.5t-76.5 270.5h80zM217 565h-60l80 135h110z" />
    <glyph glyph-name="thorn" unicode="&#xfe;" horiz-adv-x="443" 
d="M138 77v-327h-79v966l79 34v-250h90q41 0 71.5 -11.5t51 -32t31 -47.5t10.5 -57v-204q0 -30 -10.5 -57t-31 -47.5t-51 -32t-71.5 -11.5h-52zM138 77h90q43 0 64 21t21 50v204q0 29 -21 50t-64 21h-90v-346z" />
    <glyph glyph-name="ydieresis" unicode="&#xff;" horiz-adv-x="416" 
d="M181 189q9 -31 13 -63t10 -64q6 32 11 63.5t13 62.5l86 312h78l-205 -750h-78l56 208q-38 131 -77.5 271.5t-76.5 270.5h80zM100 655h75v-90h-75v90zM220 655h75v-90h-75v90z" />
    <glyph glyph-name="Amacron" unicode="&#x100;" 
d="M176 257h143l-58 218q-8 29 -9 58t-5 58q-3 -29 -4 -58t-9 -58l-129 -475h-87l192 700h75l192 -700h-87l-48 176h-131zM83 831h305v-42h-305v42z" />
    <glyph glyph-name="amacron" unicode="&#x101;" horiz-adv-x="420" 
d="M40 139q0 37 13 64t34.5 45.5t49.5 29.5t58 16l59 9l32 -72l-79 -14q-35 -6 -61.5 -23.5t-26.5 -55.5q0 -14 2.5 -25.5t11 -20t23.5 -13.5t40 -5q45 0 67.5 24t22.5 59v195q0 29 -20 50t-56 21h-137v77h137q37 0 66 -11.5t48.5 -32t29.5 -47.5t10 -57v-352h-54l-9 34
q-39 -39 -109 -39q-44 0 -73 10.5t-46.5 29.5t-25 45.5t-7.5 58.5zM50 631h305v-42h-305v42z" />
    <glyph glyph-name="Abreve" unicode="&#x102;" 
d="M176 257h143l-58 218q-8 29 -9 58t-5 58q-3 -29 -4 -58t-9 -58l-129 -475h-87l192 700h75l192 -700h-87l-48 176h-131zM359 873q0 -61 -31.5 -88t-91.5 -27q-61 0 -92.5 27t-31.5 88h63q0 -38 15.5 -51t45.5 -13q29 0 44.5 13t15.5 51h63z" />
    <glyph glyph-name="abreve" unicode="&#x103;" horiz-adv-x="419" 
d="M40 139q0 37 13 64t34.5 45.5t49.5 29.5t58 16l59 9l32 -72l-79 -14q-35 -6 -61.5 -23.5t-26.5 -55.5q0 -14 2.5 -25.5t11 -20t23.5 -13.5t40 -5q45 0 67.5 24t22.5 59v195q0 29 -20 50t-56 21h-137v77h137q37 0 66 -11.5t48.5 -32t29.5 -47.5t10 -57v-352h-54l-9 34
q-39 -39 -109 -39q-44 0 -73 10.5t-46.5 29.5t-25 45.5t-7.5 58.5zM326 673q0 -61 -31.5 -88t-91.5 -27q-61 0 -92.5 27t-31.5 88h63q0 -38 15.5 -51t45.5 -13q29 0 44.5 13t15.5 51h63z" />
    <glyph glyph-name="Aogonek" unicode="&#x104;" horiz-adv-x="490" 
d="M176 257h143l-58 218q-8 29 -9 58t-5 58q-3 -29 -4 -58t-9 -58l-129 -475h-87l192 700h75l192 -700h-87l-48 176h-131zM374 -84q0 23 13 49t43 57l22 -22q-32 -43 -32 -75q0 -21 12 -32t33 -11q20 0 49 14l15 -36q-15 -9 -34.5 -15t-40.5 -6q-36 0 -58 22.5t-22 54.5z
" />
    <glyph glyph-name="aogonek" unicode="&#x105;" horiz-adv-x="419" 
d="M39 139q0 37 13 64t34.5 45.5t49.5 29.5t58 16l59 9l32 -72l-79 -14q-35 -6 -61.5 -23.5t-26.5 -55.5q0 -14 2.5 -25.5t11 -20t23.5 -13.5t40 -5q45 0 67.5 24t22.5 59v195q0 29 -20 50t-56 21h-137v77h137q37 0 66 -11.5t48.5 -32t29.5 -47.5t10 -57v-352
q-32 -43 -32 -75q0 -21 12 -32t33 -11q20 0 49 14l15 -36q-15 -9 -34.5 -15t-40.5 -6q-36 0 -58 22.5t-22 54.5q0 19 8 40t28 44l-21 34q-39 -39 -109 -39q-44 0 -73 10.5t-46.5 29.5t-25 45.5t-7.5 58.5z" />
    <glyph glyph-name="Cacute" unicode="&#x106;" horiz-adv-x="414" 
d="M139 188q0 -107 94 -107h161v-81h-162q-88 0 -133 48.5t-45 139.5v295l85 34v-329zM233 619q-91 0 -94 -98h-85q2 86 47.5 132.5t130.5 46.5h162v-81h-161zM257 765h-60l80 135h110z" />
    <glyph glyph-name="cacute" unicode="&#x107;" horiz-adv-x="371" 
d="M130 355q-1 -4 -1 -12v-186q0 -33 21.5 -56.5t63.5 -23.5h119v-77h-119q-41 0 -71.5 12.5t-51 34t-31 50t-10.5 60.5v163zM50 356q2 30 13.5 56t32 45.5t50 31t68.5 11.5h119v-77h-119q-38 0 -59 -19t-25 -48h-80zM215 565h-60l80 135h110z" />
    <glyph glyph-name="Ccircumflex" unicode="&#x108;" horiz-adv-x="418" 
d="M139 188q0 -107 94 -107h161v-81h-162q-88 0 -133 48.5t-45 139.5v295l85 34v-329zM233 619q-91 0 -94 -98h-85q2 86 47.5 132.5t130.5 46.5h162v-81h-161zM392 765h-70l-68 69l-69 -69h-70l109 135h60z" />
    <glyph glyph-name="ccircumflex" unicode="&#x109;" horiz-adv-x="361" 
d="M130 355q-1 -4 -1 -12v-186q0 -33 21.5 -56.5t63.5 -23.5h119v-77h-119q-41 0 -71.5 12.5t-51 34t-31 50t-10.5 60.5v163zM50 356q2 30 13.5 56t32 45.5t50 31t68.5 11.5h119v-77h-119q-38 0 -59 -19t-25 -48h-80zM363 565h-70l-68 69l-69 -69h-70l109 135h60z" />
    <glyph glyph-name="Cdotaccent" unicode="&#x10a;" horiz-adv-x="414" 
d="M139 188q0 -107 94 -107h161v-81h-162q-88 0 -133 48.5t-45 139.5v295l85 34v-329zM233 619q-91 0 -94 -98h-85q2 86 47.5 132.5t130.5 46.5h162v-81h-161zM231 855h75v-90h-75v90z" />
    <glyph glyph-name="cdotaccent" unicode="&#x10b;" horiz-adv-x="353" 
d="M130 355q-1 -4 -1 -12v-186q0 -33 21.5 -56.5t63.5 -23.5h119v-77h-119q-41 0 -71.5 12.5t-51 34t-31 50t-10.5 60.5v163zM50 356q2 30 13.5 56t32 45.5t50 31t68.5 11.5h119v-77h-119q-38 0 -59 -19t-25 -48h-80zM192 655h75v-90h-75v90z" />
    <glyph glyph-name="Ccaron" unicode="&#x10c;" horiz-adv-x="420" 
d="M139 188q0 -107 94 -107h161v-81h-162q-88 0 -133 48.5t-45 139.5v295l85 34v-329zM233 619q-91 0 -94 -98h-85q2 86 47.5 132.5t130.5 46.5h162v-81h-161zM289 765h-60l-109 135h70l69 -69l68 69h70z" />
    <glyph glyph-name="ccaron" unicode="&#x10d;" horiz-adv-x="361" 
d="M130 355q-1 -4 -1 -12v-186q0 -33 21.5 -56.5t63.5 -23.5h119v-77h-119q-41 0 -71.5 12.5t-51 34t-31 50t-10.5 60.5v163zM50 356q2 30 13.5 56t32 45.5t50 31t68.5 11.5h119v-77h-119q-38 0 -59 -19t-25 -48h-80zM258 565h-60l-109 135h70l69 -69l68 69h70z" />
    <glyph glyph-name="Dcaron" unicode="&#x10e;" horiz-adv-x="472" 
d="M63 0v700h175q43 0 76.5 -14.5t56.5 -39t34.5 -57t11.5 -69.5v-340q0 -37 -11.5 -69.5t-34.5 -57t-56.5 -39t-76.5 -14.5h-48l-35 81h83q46 0 70 29.5t24 69.5v340q0 40 -24 69.5t-70 29.5h-90v-619h-85zM267 765h-60l-109 135h70l69 -69l68 69h70z" />
    <glyph glyph-name="dcaron" unicode="&#x10f;" horiz-adv-x="502" 
d="M305 423h-91q-42 0 -63.5 -26.5t-21.5 -63.5v-166q0 -37 21.5 -63.5t63.5 -26.5h91v673h79v-750h-170q-41 0 -71.5 13.5t-51 36t-31 53t-10.5 64.5v166q0 34 10.5 64.5t31 53t51 36t71.5 13.5h55zM439 644v56h58v-56q0 -32 -13.5 -53t-40.5 -21h-4v26h4q14 0 19.5 14.5
t5.5 33.5h-29z" />
    <glyph glyph-name="Dcroat" unicode="&#x110;" horiz-adv-x="466" 
d="M57 0v309h-59v83h59v308h175q43 0 76.5 -14.5t56.5 -39t34.5 -57t11.5 -69.5v-340q0 -37 -11.5 -69.5t-34.5 -57t-56.5 -39t-76.5 -14.5h-48l-35 81h83q46 0 70 29.5t24 69.5v340q0 40 -24 69.5t-70 29.5h-90v-227h101v-83h-101v-309h-85z" />
    <glyph glyph-name="dcroat" unicode="&#x111;" horiz-adv-x="443" 
d="M300 610h-167v40h147zM305 423h-91q-42 0 -63.5 -26.5t-21.5 -63.5v-166q0 -37 21.5 -63.5t63.5 -26.5h91v673h79v-750h-170q-41 0 -71.5 13.5t-51 36t-31 53t-10.5 64.5v166q0 34 10.5 64.5t31 53t51 36t71.5 13.5h55z" />
    <glyph glyph-name="Emacron" unicode="&#x112;" horiz-adv-x="423" 
d="M148 391v-203q4 -107 95 -107h151v-81h-152q-88 0 -133.5 48.5t-45.5 139.5v512h331v-81h-246v-228h199v-82h-164zM53 831h305v-42h-305v42z" />
    <glyph glyph-name="emacron" unicode="&#x113;" horiz-adv-x="422" 
d="M164 219l-35 76v-147q0 -30 21 -50.5t64 -20.5h146v-77h-146q-41 0 -71.5 11.5t-51 31.5t-31 47t-10.5 58v213q0 30 10.5 56t31 45.5t51 31t71.5 11.5q39 0 69 -10.5t50 -29t30.5 -43t10.5 -52.5v-151h-210zM129 295h166v75q0 24 -20.5 41t-60.5 17q-43 0 -64 -20
t-21 -47v-66zM51 631h305v-42h-305v42z" />
    <glyph glyph-name="Ebreve" unicode="&#x114;" horiz-adv-x="433" 
d="M148 391v-203q4 -107 95 -107h151v-81h-152q-88 0 -133.5 48.5t-45.5 139.5v512h331v-81h-246v-228h199v-82h-164zM329 873q0 -61 -31.5 -88t-91.5 -27q-61 0 -92.5 27t-31.5 88h63q0 -38 15.5 -51t45.5 -13q29 0 44.5 13t15.5 51h63z" />
    <glyph glyph-name="ebreve" unicode="&#x115;" horiz-adv-x="422" 
d="M164 219l-35 76v-147q0 -30 21 -50.5t64 -20.5h146v-77h-146q-41 0 -71.5 11.5t-51 31.5t-31 47t-10.5 58v213q0 30 10.5 56t31 45.5t51 31t71.5 11.5q39 0 69 -10.5t50 -29t30.5 -43t10.5 -52.5v-151h-210zM129 295h166v75q0 24 -20.5 41t-60.5 17q-43 0 -64 -20
t-21 -47v-66zM327 673q0 -61 -31.5 -88t-91.5 -27q-61 0 -92.5 27t-31.5 88h63q0 -38 15.5 -51t45.5 -13q29 0 44.5 13t15.5 51h63z" />
    <glyph glyph-name="Edotaccent" unicode="&#x116;" horiz-adv-x="433" 
d="M148 391v-203q4 -107 95 -107h151v-81h-152q-88 0 -133.5 48.5t-45.5 139.5v512h331v-81h-246v-228h199v-82h-164zM149 855h75v-90h-75v90z" />
    <glyph glyph-name="edotaccent" unicode="&#x117;" horiz-adv-x="422" 
d="M164 219l-35 76v-147q0 -30 21 -50.5t64 -20.5h146v-77h-146q-41 0 -71.5 11.5t-51 31.5t-31 47t-10.5 58v213q0 30 10.5 56t31 45.5t51 31t71.5 11.5q39 0 69 -10.5t50 -29t30.5 -43t10.5 -52.5v-151h-210zM129 295h166v75q0 24 -20.5 41t-60.5 17q-43 0 -64 -20
t-21 -47v-66zM181 655h75v-90h-75v90z" />
    <glyph glyph-name="Eogonek" unicode="&#x118;" horiz-adv-x="429" 
d="M148 391v-203q4 -107 95 -107h151v-81h-152q-88 0 -133.5 48.5t-45.5 139.5v512h331v-81h-246v-228h199v-82h-164zM295 -84q0 23 13 49t43 57l22 -22q-32 -43 -32 -75q0 -21 12 -32t33 -11q20 0 49 14l15 -36q-15 -9 -34.5 -15t-40.5 -6q-36 0 -58 22.5t-22 54.5z" />
    <glyph glyph-name="eogonek" unicode="&#x119;" horiz-adv-x="413" 
d="M164 219l-35 76v-147q0 -30 21 -50.5t64 -20.5h146v-77h-59q-15 -19 -23.5 -38.5t-8.5 -36.5q0 -21 12 -32t33 -11q20 0 49 14l15 -36q-15 -9 -34.5 -15t-40.5 -6q-36 0 -58 22.5t-22 54.5q0 19 8 40t28 44h-45q-41 0 -71.5 11.5t-51 31.5t-31 47t-10.5 58v213
q0 30 10.5 56t31 45.5t51 31t71.5 11.5q39 0 69 -10.5t50 -29t30.5 -43t10.5 -52.5v-151h-210zM129 295h166v75q0 24 -20.5 41t-60.5 17q-43 0 -64 -20t-21 -47v-66z" />
    <glyph glyph-name="Ecaron" unicode="&#x11a;" horiz-adv-x="433" 
d="M148 391v-203q4 -107 95 -107h151v-81h-152q-88 0 -133.5 48.5t-45.5 139.5v512h331v-81h-246v-228h199v-82h-164zM246 765h-60l-109 135h70l69 -69l68 69h70z" />
    <glyph glyph-name="ecaron" unicode="&#x11b;" horiz-adv-x="422" 
d="M164 219l-35 76v-147q0 -30 21 -50.5t64 -20.5h146v-77h-146q-41 0 -71.5 11.5t-51 31.5t-31 47t-10.5 58v213q0 30 10.5 56t31 45.5t51 31t71.5 11.5q39 0 69 -10.5t50 -29t30.5 -43t10.5 -52.5v-151h-210zM129 295h166v75q0 24 -20.5 41t-60.5 17q-43 0 -64 -20
t-21 -47v-66zM244 565h-60l-109 135h70l69 -69l68 69h70z" />
    <glyph glyph-name="Gcircumflex" unicode="&#x11c;" horiz-adv-x="478" 
d="M338 309h-94l-34 82h213v-391h-85v309zM233 0q-88 0 -133.5 48.5t-45.5 139.5v324q0 91 45.5 139.5t133.5 48.5h162v-81h-161q-95 0 -95 -107v-324q0 -107 95 -107h69l35 -81h-105zM378 765h-70l-68 69l-69 -69h-70l109 135h60z" />
    <glyph glyph-name="gcircumflex" unicode="&#x11d;" horiz-adv-x="434" 
d="M305 423h-91q-42 0 -63.5 -26.5t-21.5 -63.5v-166q0 -37 21.5 -63.5t63.5 -26.5h91v423h79v-602q0 -31 -10.5 -58t-31 -47t-51.5 -31.5t-71 -11.5h-147v76h147q42 0 63.5 21t21.5 51v102h-91q-41 0 -71.5 13.5t-51 36t-31 53t-10.5 64.5v166q0 34 10.5 64.5t31 53t51 36
t71.5 13.5h55zM358 565h-70l-68 69l-69 -69h-70l109 135h60z" />
    <glyph glyph-name="Gbreve" unicode="&#x11e;" horiz-adv-x="478" 
d="M338 309h-94l-34 82h213v-391h-85v309zM233 0q-88 0 -133.5 48.5t-45.5 139.5v324q0 91 45.5 139.5t133.5 48.5h162v-81h-161q-95 0 -95 -107v-324q0 -107 95 -107h69l35 -81h-105zM353 873q0 -61 -31.5 -88t-91.5 -27q-61 0 -92.5 27t-31.5 88h63q0 -38 15.5 -51
t45.5 -13q29 0 44.5 13t15.5 51h63z" />
    <glyph glyph-name="gbreve" unicode="&#x11f;" horiz-adv-x="434" 
d="M305 423h-91q-42 0 -63.5 -26.5t-21.5 -63.5v-166q0 -37 21.5 -63.5t63.5 -26.5h91v423h79v-602q0 -31 -10.5 -58t-31 -47t-51.5 -31.5t-71 -11.5h-147v76h147q42 0 63.5 21t21.5 51v102h-91q-41 0 -71.5 13.5t-51 36t-31 53t-10.5 64.5v166q0 34 10.5 64.5t31 53t51 36
t71.5 13.5h55zM333 673q0 -61 -31.5 -88t-91.5 -27q-61 0 -92.5 27t-31.5 88h63q0 -38 15.5 -51t45.5 -13q29 0 44.5 13t15.5 51h63z" />
    <glyph glyph-name="Gdotaccent" unicode="&#x120;" horiz-adv-x="478" 
d="M338 309h-94l-34 82h213v-391h-85v309zM233 0q-88 0 -133.5 48.5t-45.5 139.5v324q0 91 45.5 139.5t133.5 48.5h162v-81h-161q-95 0 -95 -107v-324q0 -107 95 -107h69l35 -81h-105zM173 855h75v-90h-75v90z" />
    <glyph glyph-name="gdotaccent" unicode="&#x121;" horiz-adv-x="434" 
d="M305 423h-91q-42 0 -63.5 -26.5t-21.5 -63.5v-166q0 -37 21.5 -63.5t63.5 -26.5h91v423h79v-602q0 -31 -10.5 -58t-31 -47t-51.5 -31.5t-71 -11.5h-147v76h147q42 0 63.5 21t21.5 51v102h-91q-41 0 -71.5 13.5t-51 36t-31 53t-10.5 64.5v166q0 34 10.5 64.5t31 53t51 36
t71.5 13.5h55zM187 655h75v-90h-75v90z" />
    <glyph glyph-name="uni0122" unicode="&#x122;" horiz-adv-x="454" 
d="M338 309h-94l-34 82h213v-391h-85v309zM233 0q-88 0 -133.5 48.5t-45.5 139.5v324q0 91 45.5 139.5t133.5 48.5h162v-81h-161q-95 0 -95 -107v-324q0 -107 95 -107h69l35 -81h-105zM239 -115v60h72v-60q0 -29 -14.5 -48t-43.5 -19h-14v33h14q13 0 17.5 10t4.5 24h-36z
" />
    <glyph glyph-name="uni0123" unicode="&#x123;" horiz-adv-x="444" 
d="M305 423h-91q-42 0 -63.5 -26.5t-21.5 -63.5v-166q0 -37 21.5 -63.5t63.5 -26.5h91v423h79v-602q0 -31 -10.5 -58t-31 -47t-51.5 -31.5t-71 -11.5h-147v76h147q42 0 63.5 21t21.5 51v102h-91q-41 0 -71.5 13.5t-51 36t-31 53t-10.5 64.5v166q0 34 10.5 64.5t31 53t51 36
t71.5 13.5h55zM274.003 632.993v-59.9961h-71.9961v59.9961q0 28.998 14.499 47.9971q14.5 18.999 43.498 18.999h13.999v-32.998h-13.999q-13 0 -17.499 -10q-4.5 -9.99902 -4.5 -23.998h35.998z" />
    <glyph glyph-name="Hcircumflex" unicode="&#x124;" horiz-adv-x="495" 
d="M148 392v-392h-85v700h85v-308h199v308h85v-700h-85v308h-164zM386 765h-70l-68 69l-69 -69h-70l109 135h60z" />
    <glyph glyph-name="hcircumflex" unicode="&#x125;" horiz-adv-x="456" 
d="M137 0h-78v731h78v-731zM173 423l-36 77h94q36 0 64 -11t47.5 -30t30 -44.5t10.5 -53.5v-361h-79v361q0 25 -17.5 43.5t-63.5 18.5h-50zM436 565h-70l-68 69l-69 -69h-70l109 135h60z" />
    <glyph glyph-name="Itilde" unicode="&#x128;" horiz-adv-x="176" 
d="M139 700v-700h-85v700h85zM146 809q24 0 59 33l24 -42q-24 -21 -44 -32.5t-37 -11.5q-24 0 -73 25q-47 25 -61 25q-28 0 -63 -31l-22 42q44 43 84 43q26 0 70 -26q23 -14 38.5 -19.5t24.5 -5.5z" />
    <glyph glyph-name="itilde" unicode="&#x129;" horiz-adv-x="163" 
d="M50 500h78v-500h-78v500zM140 609q24 0 59 33l24 -42q-24 -21 -44 -32.5t-37 -11.5q-24 0 -73 25q-47 25 -61 25q-28 0 -63 -31l-22 42q44 43 84 43q26 0 70 -26q23 -14 38.5 -19.5t24.5 -5.5z" />
    <glyph glyph-name="Imacron" unicode="&#x12a;" horiz-adv-x="176" 
d="M148 700v-700h-85v700h85zM-63 831h305v-42h-305v42z" />
    <glyph glyph-name="imacron" unicode="&#x12b;" horiz-adv-x="163" 
d="M59 500h78v-500h-78v500zM-70 631h305v-42h-305v42z" />
    <glyph glyph-name="Ibreve" unicode="&#x12c;" horiz-adv-x="176" 
d="M139 700v-700h-85v700h85zM203 873q0 -61 -31.5 -88t-91.5 -27q-61 0 -92.5 27t-31.5 88h63q0 -38 15.5 -51t45.5 -13q29 0 44.5 13t15.5 51h63z" />
    <glyph glyph-name="ibreve" unicode="&#x12d;" horiz-adv-x="163" 
d="M50 500h78v-500h-78v500zM196 673q0 -61 -31.5 -88t-91.5 -27q-61 0 -92.5 27t-31.5 88h63q0 -38 15.5 -51t45.5 -13q29 0 44.5 13t15.5 51h63z" />
    <glyph glyph-name="Iogonek" unicode="&#x12e;" horiz-adv-x="176" 
d="M139 700v-700h-85v700h85zM26 -84q0 23 13 49t43 57l22 -22q-32 -43 -32 -75q0 -21 12 -32t33 -11q20 0 49 14l15 -36q-15 -9 -34.5 -15t-40.5 -6q-36 0 -58 22.5t-22 54.5z" />
    <glyph glyph-name="iogonek" unicode="&#x12f;" horiz-adv-x="163" 
d="M50 500h78v-500h-78v500zM50 680h78v-102h-78v102zM16 -84q0 23 13 49t43 57l22 -22q-32 -43 -32 -75q0 -21 12 -32t33 -11q20 0 49 14l15 -36q-15 -9 -34.5 -15t-40.5 -6q-36 0 -58 22.5t-22 54.5z" />
    <glyph glyph-name="Idotaccent" unicode="&#x130;" horiz-adv-x="211" 
d="M150 700v-700h-85v700h85zM68 855h75v-90h-75v90z" />
    <glyph glyph-name="dotlessi" unicode="&#x131;" horiz-adv-x="196" 
d="M59 500h78v-500h-78v500z" />
    <glyph glyph-name="ij" unicode="&#x133;" horiz-adv-x="342" 
d="M59 500h78v-500h-78v500zM59 680h78v-102h-78v102zM204 -250v750h79v-715zM204 680h79v-102h-79v102z" />
    <glyph glyph-name="Jcircumflex" unicode="&#x134;" horiz-adv-x="315" 
d="M175 700h85v-512q0 -91 -45 -139.5t-133 -48.5h-68v81h67q94 0 94 107v512zM360 765h-70l-68 69l-69 -69h-70l109 135h60z" />
    <glyph glyph-name="jcircumflex" unicode="&#x135;" horiz-adv-x="173" 
d="M54 -241v741h79v-706zM226 565h-70l-68 69l-69 -69h-70l109 135h60z" />
    <glyph glyph-name="uni0136" unicode="&#x136;" horiz-adv-x="470" 
d="M148 373v-373h-85v700h85v-309h18l183 309h94l-201 -341l211 -359h-95l-182 309zM210 -115v60h72v-60q0 -29 -14.5 -48t-43.5 -19h-14v33h14q13 0 17.5 10t4.5 24h-36z" />
    <glyph glyph-name="uni0137" unicode="&#x137;" horiz-adv-x="419" 
d="M221 256q19 -29 40.5 -62t43.5 -67t43 -66.5t40 -60.5h-92l-143 219h-16v-219h-78v723l78 27v-455h19q35 50 70.5 103t70.5 102h91zM166 -115v60h72v-60q0 -29 -14.5 -48t-43.5 -19h-14v33h14q13 0 17.5 10t4.5 24h-36z" />
    <glyph glyph-name="kgreenlandic" unicode="&#x138;" horiz-adv-x="418" 
d="M59 500h79v-213l157 213h96l-163 -221l42.5 -68t45.5 -72.5t45.5 -72t41.5 -66.5h-90l-135 213l-40 -47v-166h-79v500z" />
    <glyph glyph-name="Lacute" unicode="&#x139;" horiz-adv-x="405" 
d="M148 700v-619h246v-81h-331v700h85zM132 765h-60l80 135h110z" />
    <glyph glyph-name="lacute" unicode="&#x13a;" horiz-adv-x="193" 
d="M137 750v-750h-78v737zM104 794h-60l80 135h110z" />
    <glyph glyph-name="uni013B" unicode="&#x13b;" horiz-adv-x="405" 
d="M148 700v-619h246v-81h-331v700h85zM204 -115v60h72v-60q0 -29 -14.5 -48t-43.5 -19h-14v33h14q13 0 17.5 10t4.5 24h-36z" />
    <glyph glyph-name="uni013C" unicode="&#x13c;" horiz-adv-x="189" 
d="M137 750v-750h-78v737zM55 -115v60h72v-60q0 -29 -14.5 -48t-43.5 -19h-14v33h14q13 0 17.5 10t4.5 24h-36z" />
    <glyph glyph-name="Lcaron" unicode="&#x13d;" horiz-adv-x="398" 
d="M148 700v-619h246v-81h-331v700h85zM131 765h-60l-109 135h70l69 -69l68 69h70z" />
    <glyph glyph-name="lcaron" unicode="&#x13e;" horiz-adv-x="250" 
d="M137 750v-750h-78v737zM172 644v56h58v-56q0 -32 -13.5 -53t-40.5 -21h-4v26h4q14 0 19.5 14.5t5.5 33.5h-29z" />
    <glyph glyph-name="Lslash" unicode="&#x141;" horiz-adv-x="388" 
d="M139 700v-619h246v-81h-331v700h85zM-19 266l-18 39l303 142l18 -39z" />
    <glyph glyph-name="lslash" unicode="&#x142;" horiz-adv-x="265" 
d="M177 750v-750h-78v737zM-19 266l-18 39l303 142l18 -39z" />
    <glyph glyph-name="Nacute" unicode="&#x143;" horiz-adv-x="505" 
d="M166 456l-23 80q2 -40 3.5 -79.5t1.5 -79.5v-377h-85v700h98l177 -456l22 -80q-2 39 -3 79t-1 80v377h85v-700h-98zM263 765h-60l80 135h110z" />
    <glyph glyph-name="nacute" unicode="&#x144;" horiz-adv-x="440" 
d="M59 500h172q36 0 64 -11t47.5 -30t30 -44.5t10.5 -53.5v-361h-79v361q0 25 -17.5 43.5t-63.5 18.5h-164v77zM137 423v-423h-78v388zM193 565h-60l80 135h110z" />
    <glyph glyph-name="uni0145" unicode="&#x145;" horiz-adv-x="505" 
d="M166 456l-23 80q2 -40 3.5 -79.5t1.5 -79.5v-377h-85v700h98l177 -456l22 -80q-2 39 -3 79t-1 80v377h85v-700h-98zM217 -115v60h72v-60q0 -29 -14.5 -48t-43.5 -19h-14v33h14q13 0 17.5 10t4.5 24h-36z" />
    <glyph glyph-name="uni0146" unicode="&#x146;" horiz-adv-x="440" 
d="M59 500h172q36 0 64 -11t47.5 -30t30 -44.5t10.5 -53.5v-361h-79v361q0 25 -17.5 43.5t-63.5 18.5h-164v77zM137 423v-423h-78v388zM187 -115v60h72v-60q0 -29 -14.5 -48t-43.5 -19h-14v33h14q13 0 17.5 10t4.5 24h-36z" />
    <glyph glyph-name="Ncaron" unicode="&#x147;" horiz-adv-x="505" 
d="M166 456l-23 80q2 -40 3.5 -79.5t1.5 -79.5v-377h-85v700h98l177 -456l22 -80q-2 39 -3 79t-1 80v377h85v-700h-98zM284 765h-60l-109 135h70l69 -69l68 69h70z" />
    <glyph glyph-name="ncaron" unicode="&#x148;" horiz-adv-x="440" 
d="M59 500h172q36 0 64 -11t47.5 -30t30 -44.5t10.5 -53.5v-361h-79v361q0 25 -17.5 43.5t-63.5 18.5h-164v77zM137 423v-423h-78v388zM253 565h-60l-109 135h70l69 -69l68 69h70z" />
    <glyph glyph-name="Eng" unicode="&#x14a;" horiz-adv-x="533" 
d="M166 456l-23 60q2 -35 3.5 -69.5t1.5 -69.5v-377h-85v700h98l177 -456l22 -60q-2 35 -3 69.5t-1 69.5v377h85l1 -624v-152q0 -34 -7 -63t-22 -50.5t-39.5 -34t-60.5 -12.5h-36v78h36q28 0 38.5 25t10.5 57v76h-19z" />
    <glyph glyph-name="eng" unicode="&#x14b;" horiz-adv-x="440" 
d="M59 500h172q36 0 64 -11t47.5 -30t30 -44.5t10.5 -53.5v-472q0 -25 -7 -47t-22 -38t-39 -25.5t-59 -9.5h-35v76h35q28 0 38 13.5t10 30.5v472q0 25 -17.5 43.5t-63.5 18.5h-86v-423h-78v500z" />
    <glyph glyph-name="Omacron" unicode="&#x14c;" 
d="M357 521q-2 52 -26.5 77t-68.5 25h-28q-46 0 -70.5 -27t-24.5 -84v-324q0 -57 24.5 -84t70.5 -27h28q46 0 70.5 27t24.5 84v295l85 34v-329q0 -93 -45.5 -143t-133.5 -50h-30q-88 0 -133.5 50t-45.5 143v324q0 93 45.5 143t133.5 50h30q39 0 72 -11.5t56.5 -33t37 -53.5
t13.5 -73v-13h-85zM87 831h305v-42h-305v42z" />
    <glyph glyph-name="omacron" unicode="&#x14d;" horiz-adv-x="435" 
d="M217 72q43 0 65.5 21.5t22.5 50.5v176l79 35v-211q0 -30 -11 -57.5t-32 -47.5t-52.5 -32t-71.5 -12q-41 0 -72 12t-52 32t-32 47.5t-11 57.5v212q0 30 11 57.5t32 47.5t52 32t72 12q40 0 71.5 -12t52.5 -32t32 -47.5t11 -57.5h-79q0 29 -22 50.5t-66 21.5t-66 -21.5
t-22 -50.5v-212q0 -29 22 -50.5t66 -21.5zM58 631h305v-42h-305v42z" />
    <glyph glyph-name="Obreve" unicode="&#x14e;" 
d="M357 521q-2 52 -26.5 77t-68.5 25h-28q-46 0 -70.5 -27t-24.5 -84v-324q0 -57 24.5 -84t70.5 -27h28q46 0 70.5 27t24.5 84v295l85 34v-329q0 -93 -45.5 -143t-133.5 -50h-30q-88 0 -133.5 50t-45.5 143v324q0 93 45.5 143t133.5 50h30q39 0 72 -11.5t56.5 -33t37 -53.5
t13.5 -73v-13h-85zM363 873q0 -61 -31.5 -88t-91.5 -27q-61 0 -92.5 27t-31.5 88h63q0 -38 15.5 -51t45.5 -13q29 0 44.5 13t15.5 51h63z" />
    <glyph glyph-name="obreve" unicode="&#x14f;" horiz-adv-x="435" 
d="M217 72q43 0 65.5 21.5t22.5 50.5v176l79 35v-211q0 -30 -11 -57.5t-32 -47.5t-52.5 -32t-71.5 -12q-41 0 -72 12t-52 32t-32 47.5t-11 57.5v212q0 30 11 57.5t32 47.5t52 32t72 12q40 0 71.5 -12t52.5 -32t32 -47.5t11 -57.5h-79q0 29 -22 50.5t-66 21.5t-66 -21.5
t-22 -50.5v-212q0 -29 22 -50.5t66 -21.5zM334 673q0 -61 -31.5 -88t-91.5 -27q-61 0 -92.5 27t-31.5 88h63q0 -38 15.5 -51t45.5 -13q29 0 44.5 13t15.5 51h63z" />
    <glyph glyph-name="Ohungarumlaut" unicode="&#x150;" 
d="M357 521q-2 52 -26.5 77t-68.5 25h-28q-46 0 -70.5 -27t-24.5 -84v-324q0 -57 24.5 -84t70.5 -27h28q46 0 70.5 27t24.5 84v295l85 34v-329q0 -93 -45.5 -143t-133.5 -50h-30q-88 0 -133.5 50t-45.5 143v324q0 93 45.5 143t133.5 50h30q39 0 72 -11.5t56.5 -33t37 -53.5
t13.5 -73v-13h-85zM176 765h-40l80 135h70zM292 765h-40l80 135h70z" />
    <glyph glyph-name="ohungarumlaut" unicode="&#x151;" horiz-adv-x="436" 
d="M217 72q43 0 65.5 21.5t22.5 50.5v176l79 35v-211q0 -30 -11 -57.5t-32 -47.5t-52.5 -32t-71.5 -12q-41 0 -72 12t-52 32t-32 47.5t-11 57.5v212q0 30 11 57.5t32 47.5t52 32t72 12q40 0 71.5 -12t52.5 -32t32 -47.5t11 -57.5h-79q0 29 -22 50.5t-66 21.5t-66 -21.5
t-22 -50.5v-212q0 -29 22 -50.5t66 -21.5zM157 565h-40l80 135h70zM273 565h-40l80 135h70z" />
    <glyph glyph-name="OE" unicode="&#x152;" horiz-adv-x="727" 
d="M442 391v-203q4 -107 95 -107h151v-81h-152q-104 0 -136 97q-16 -50 -50.5 -76t-86.5 -26h-30q-88 0 -133.5 50t-45.5 143v324q0 93 45.5 143t133.5 50h30q55 0 94 -33v28h331v-81h-246v-228h199v-82h-164zM262 77q46 0 70.5 27t24.5 84v333q-2 52 -26.5 77t-68.5 25h-28
q-46 0 -70.5 -27t-24.5 -84v-324q0 -57 24.5 -84t70.5 -27h28z" />
    <glyph glyph-name="oe" unicode="&#x153;" horiz-adv-x="677" 
d="M419 219l-35 76v-147q0 -30 21 -50.5t64 -20.5h146v-77h-146q-45 0 -76 18t-48 48q-17 -32 -49 -51.5t-79 -19.5q-41 0 -72 12t-52 32t-32 47.5t-11 57.5v212q0 30 11 57.5t32 47.5t52 32t72 12q45 0 77 -18.5t49 -49.5q17 31 48.5 49.5t77.5 18.5q39 0 69 -10.5t50 -29
t30.5 -43t10.5 -52.5v-151h-210zM305 356q0 29 -22 50.5t-66 21.5t-66 -21.5t-22 -50.5v-212q0 -29 22 -50.5t66 -21.5q43 0 65.5 21.5t22.5 50.5v212zM384 295h166v75q0 24 -20.5 41t-60.5 17q-43 0 -64 -20t-21 -47v-66z" />
    <glyph glyph-name="Racute" unicode="&#x154;" horiz-adv-x="455" 
d="M63 586l85 33h-85v81h160q44 0 77.5 -14.5t56.5 -39t34.5 -57t11.5 -69.5v-90q0 -52 -22.5 -94t-68.5 -65l102 -271h-91l-98 251h-42l-35 81v-332h-85v586zM148 332h75q47 0 71 29t24 69v90q0 40 -24 69.5t-71 29.5h-75v-287zM233 765h-60l80 135h110z" />
    <glyph glyph-name="racute" unicode="&#x155;" horiz-adv-x="284" 
d="M59 343q0 32 10.5 60.5t31 50t51 34t71.5 12.5h42v-77h-42q-42 0 -63.5 -23.5t-21.5 -56.5v-343h-79v343zM143 565h-60l80 135h110z" />
    <glyph glyph-name="Rcommaaccent" unicode="&#x156;" horiz-adv-x="455" 
d="M63 586l85 33h-85v81h160q44 0 77.5 -14.5t56.5 -39t34.5 -57t11.5 -69.5v-90q0 -52 -22.5 -94t-68.5 -65l102 -271h-91l-98 251h-42l-35 81v-332h-85v586zM148 332h75q47 0 71 29t24 69v90q0 40 -24 69.5t-71 29.5h-75v-287zM187 -115v60h72v-60q0 -29 -14.5 -48
t-43.5 -19h-14v33h14q13 0 17.5 10t4.5 24h-36z" />
    <glyph glyph-name="rcommaaccent" unicode="&#x157;" horiz-adv-x="266" 
d="M59 343q0 32 10.5 60.5t31 50t51 34t71.5 12.5h42v-77h-42q-42 0 -63.5 -23.5t-21.5 -56.5v-343h-79v343zM55 -115v60h72v-60q0 -29 -14.5 -48t-43.5 -19h-14v33h14q13 0 17.5 10t4.5 24h-36z" />
    <glyph glyph-name="Rcaron" unicode="&#x158;" horiz-adv-x="455" 
d="M63 586l85 33h-85v81h160q44 0 77.5 -14.5t56.5 -39t34.5 -57t11.5 -69.5v-90q0 -52 -22.5 -94t-68.5 -65l102 -271h-91l-98 251h-42l-35 81v-332h-85v586zM148 332h75q47 0 71 29t24 69v90q0 40 -24 69.5t-71 29.5h-75v-287zM253 765h-60l-109 135h70l69 -69l68 69h70z
" />
    <glyph glyph-name="rcaron" unicode="&#x159;" horiz-adv-x="266" 
d="M59 343q0 32 10.5 60.5t31 50t51 34t71.5 12.5h42v-77h-42q-42 0 -63.5 -23.5t-21.5 -56.5v-343h-79v343zM196 565h-60l-109 135h70l69 -69l68 69h70z" />
    <glyph glyph-name="Sacute" unicode="&#x15a;" horiz-adv-x="443" 
d="M403 188q0 -91 -46.5 -139.5t-134.5 -48.5h-173v81h173q47 0 71.5 25.5t24.5 79.5q0 33 -9 53.5t-25 34t-37.5 21.5t-45.5 16q-27 9 -54 20.5t-49.5 30t-37.5 47.5t-18 74l84 34v-5q0 -34 9.5 -54.5t25 -33.5t36.5 -21t44 -15q31 -11 60.5 -24.5t52 -36t36 -56
t13.5 -83.5zM221 619q-91 0 -95 -98h-85q2 87 48 133t131 46h162v-81h-161zM231 765h-60l80 135h110z" />
    <glyph glyph-name="sacute" unicode="&#x15b;" horiz-adv-x="395" 
d="M37 357v7q0 60 41.5 98t117.5 38h136v-77h-136q-38 0 -59 -16t-21 -41v-9h-79zM116 355q2 -15 10 -25.5t20 -17t26.5 -11.5t29.5 -9q39 -12 69 -23t49.5 -27.5t29.5 -40t10 -60.5q0 -68 -42.5 -104.5t-117.5 -36.5h-163v77h162q38 0 60 16t22 45q0 35 -25 50t-73 28
q-19 5 -41 11t-42 17.5t-36 30t-23 47.5zM210 565h-60l80 135h110z" />
    <glyph glyph-name="Scircumflex" unicode="&#x15c;" horiz-adv-x="443" 
d="M403 188q0 -91 -46.5 -139.5t-134.5 -48.5h-173v81h173q47 0 71.5 25.5t24.5 79.5q0 33 -9 53.5t-25 34t-37.5 21.5t-45.5 16q-27 9 -54 20.5t-49.5 30t-37.5 47.5t-18 74l84 34v-5q0 -34 9.5 -54.5t25 -33.5t36.5 -21t44 -15q31 -11 60.5 -24.5t52 -36t36 -56
t13.5 -83.5zM221 619q-91 0 -95 -98h-85q2 87 48 133t131 46h162v-81h-161zM360 765h-70l-68 69l-69 -69h-70l109 135h60z" />
    <glyph glyph-name="scircumflex" unicode="&#x15d;" horiz-adv-x="395" 
d="M37 357v7q0 60 41.5 98t117.5 38h136v-77h-136q-38 0 -59 -16t-21 -41v-9h-79zM116 355q2 -15 10 -25.5t20 -17t26.5 -11.5t29.5 -9q39 -12 69 -23t49.5 -27.5t29.5 -40t10 -60.5q0 -68 -42.5 -104.5t-117.5 -36.5h-163v77h162q38 0 60 16t22 45q0 35 -25 50t-73 28
q-19 5 -41 11t-42 17.5t-36 30t-23 47.5zM338 565h-70l-68 69l-69 -69h-70l109 135h60z" />
    <glyph glyph-name="Scedilla" unicode="&#x15e;" horiz-adv-x="443" 
d="M403 188q0 -86 -42 -134.5t-122 -53.5l-14 -47q23 -1 38.5 -8.5t24.5 -17.5t12.5 -21.5t3.5 -21.5q0 -11 -4.5 -23t-14 -21.5t-24.5 -16t-36 -6.5q-10 0 -31.5 1.5t-42.5 12.5l10 27q17 -7 32.5 -9t26.5 -2q16 0 29.5 8.5t13.5 28.5q0 18 -15 28.5t-38 10.5h-6l-16 13
l20 64h-159v81h173q47 0 71.5 25.5t24.5 79.5q0 33 -9 53.5t-25 34t-37.5 21.5t-45.5 16q-29 10 -58 22.5t-51.5 34t-36.5 55.5t-14 87q0 92 45.5 141t133.5 49h162v-81h-161q-46 0 -70.5 -26.5t-24.5 -80.5q0 -34 9.5 -54.5t25 -33.5t36.5 -21t44 -15q31 -11 60.5 -24.5
t52 -36t36 -56t13.5 -83.5z" />
    <glyph glyph-name="scedilla" unicode="&#x15f;" horiz-adv-x="395" 
d="M116 355q2 -15 10 -25.5t20 -17t26.5 -11.5t29.5 -9q39 -12 69 -23t49.5 -27.5t29.5 -40t10 -60.5q0 -64 -38.5 -100t-105.5 -41l-14 -47q23 -1 38.5 -8.5t24.5 -17.5t12.5 -21.5t3.5 -21.5q0 -11 -4.5 -23t-14 -21.5t-24.5 -16t-36 -6.5q-10 0 -31.5 1.5t-42.5 12.5
l10 27q17 -7 32.5 -9t26.5 -2q16 0 29.5 8.5t13.5 28.5q0 18 -15 28.5t-38 10.5h-6l-16 13l20 64h-148v77h162q38 0 60 16t22 45q0 35 -25 50t-73 28q-19 5 -41 11t-42 17.5t-36 30t-23 47.5zM37 357v7q0 60 41.5 98t117.5 38h136v-77h-136q-38 0 -59 -16t-21 -41v-9h-79z
" />
    <glyph glyph-name="Scaron" unicode="&#x160;" horiz-adv-x="443" 
d="M403 188q0 -91 -46.5 -139.5t-134.5 -48.5h-173v81h173q47 0 71.5 25.5t24.5 79.5q0 33 -9 53.5t-25 34t-37.5 21.5t-45.5 16q-27 9 -54 20.5t-49.5 30t-37.5 47.5t-18 74l84 34v-5q0 -34 9.5 -54.5t25 -33.5t36.5 -21t44 -15q31 -11 60.5 -24.5t52 -36t36 -56
t13.5 -83.5zM221 619q-91 0 -95 -98h-85q2 87 48 133t131 46h162v-81h-161zM252 765h-60l-109 135h70l69 -69l68 69h70z" />
    <glyph glyph-name="scaron" unicode="&#x161;" horiz-adv-x="395" 
d="M37 357v7q0 60 41.5 98t117.5 38h136v-77h-136q-38 0 -59 -16t-21 -41v-9h-79zM116 355q2 -15 10 -25.5t20 -17t26.5 -11.5t29.5 -9q39 -12 69 -23t49.5 -27.5t29.5 -40t10 -60.5q0 -68 -42.5 -104.5t-117.5 -36.5h-163v77h162q38 0 60 16t22 45q0 35 -25 50t-73 28
q-19 5 -41 11t-42 17.5t-36 30t-23 47.5zM230 565h-60l-109 135h70l69 -69l68 69h70z" />
    <glyph glyph-name="uni0162" unicode="&#x162;" horiz-adv-x="417" 
d="M251 619v-619h-23l-14 -47q23 -1 38.5 -8.5t24.5 -17.5t12.5 -21.5t3.5 -21.5q0 -11 -4.5 -23t-14 -21.5t-24.5 -16t-36 -6.5q-10 0 -31.5 1.5t-42.5 12.5l10 27q17 -7 32.5 -9t26.5 -2q16 0 29.5 8.5t13.5 28.5q0 18 -15 28.5t-38 10.5h-6l-16 13l20 64h-31v585l85 34
h-222v81h359v-81h-137z" />
    <glyph glyph-name="uni0163" unicode="&#x163;" horiz-adv-x="315" 
d="M129 495h157v-74h-120l-37 74v-310q0 -21 4 -40.5t13.5 -34.5t26 -24t41.5 -9h81v-77h-81l-14 -47q23 -1 38.5 -8.5t24.5 -17.5t12.5 -21.5t3.5 -21.5q0 -11 -4.5 -23t-14 -21.5t-24.5 -16t-36 -6.5q-10 0 -31.5 1.5t-42.5 12.5l10 27q17 -7 32.5 -9t26.5 -2
q16 0 29.5 8.5t13.5 28.5q0 18 -15 28.5t-38 10.5h-6l-16 13l20 66q-66 11 -99.5 61.5t-33.5 121.5v425h79v-115z" />
    <glyph glyph-name="Tcaron" unicode="&#x164;" horiz-adv-x="417" 
d="M251 619v-619h-85v585l85 34h-222v81h359v-81h-137zM229 765h-60l-109 135h70l69 -69l68 69h70z" />
    <glyph glyph-name="tcaron" unicode="&#x165;" horiz-adv-x="311" 
d="M129 495h157v-74h-120l-37 74v-310q0 -21 4 -40.5t13.5 -34.5t26 -24t41.5 -9h81v-77h-81q-41 0 -71.5 14.5t-51 39t-31 58.5t-10.5 73v425h79v-115zM246 644v56h58v-56q0 -32 -13.5 -53t-40.5 -21h-4v26h4q14 0 19.5 14.5t5.5 33.5h-29z" />
    <glyph glyph-name="Tbar" unicode="&#x166;" horiz-adv-x="417" 
d="M251 619v-119h121v-58h-121v-442h-85v442h-120v58h120v85l85 34h-222v81h359v-81h-137z" />
    <glyph glyph-name="tbar" unicode="&#x167;" horiz-adv-x="315" 
d="M129 185q0 -21 4 -40.5t13.5 -34.5t26 -24t41.5 -9h81v-77h-81q-41 0 -71.5 14.5t-51 39t-31 58.5t-10.5 73v425h79v-115h157v-74h-120l-37 74v-310zM286 385v-74h-120l-37 74h157z" />
    <glyph glyph-name="Utilde" unicode="&#x168;" horiz-adv-x="478" 
d="M423 161q0 -34 -12 -64t-35 -52.5t-57.5 -36t-79.5 -13.5t-80 13.5t-58 36t-35 52.5t-12 64v539h85v-539q0 -35 25.5 -59.5t74.5 -24.5q48 0 73.5 24.5t25.5 59.5v539h85v-539zM296 809q24 0 59 33l24 -42q-24 -21 -44 -32.5t-37 -11.5q-24 0 -73 25q-47 25 -61 25
q-28 0 -63 -31l-22 42q44 43 84 43q26 0 70 -26q23 -14 38.5 -19.5t24.5 -5.5z" />
    <glyph glyph-name="utilde" unicode="&#x169;" horiz-adv-x="439" 
d="M378 500v-356q0 -30 -10.5 -57.5t-30.5 -47.5t-50.5 -32t-69.5 -12q-40 0 -70 12t-50.5 32t-30.5 47.5t-10 57.5v356h78v-356q0 -29 20.5 -50.5t62.5 -21.5q41 0 61.5 21.5t20.5 50.5v356h79zM279 609q24 0 59 33l24 -42q-24 -21 -44 -32.5t-37 -11.5q-24 0 -73 25
q-47 25 -61 25q-28 0 -63 -31l-22 42q44 43 84 43q26 0 70 -26q23 -14 38.5 -19.5t24.5 -5.5z" />
    <glyph glyph-name="Umacron" unicode="&#x16a;" horiz-adv-x="478" 
d="M423 161q0 -34 -12 -64t-35 -52.5t-57.5 -36t-79.5 -13.5t-80 13.5t-58 36t-35 52.5t-12 64v539h85v-539q0 -35 25.5 -59.5t74.5 -24.5q48 0 73.5 24.5t25.5 59.5v539h85v-539zM77 831h305v-42h-305v42z" />
    <glyph glyph-name="umacron" unicode="&#x16b;" horiz-adv-x="440" 
d="M378 500v-356q0 -30 -10.5 -57.5t-30.5 -47.5t-50.5 -32t-69.5 -12q-40 0 -70 12t-50.5 32t-30.5 47.5t-10 57.5v356h78v-356q0 -29 20.5 -50.5t62.5 -21.5q41 0 61.5 21.5t20.5 50.5v356h79zM60 631h305v-42h-305v42z" />
    <glyph glyph-name="Ubreve" unicode="&#x16c;" horiz-adv-x="478" 
d="M423 161q0 -34 -12 -64t-35 -52.5t-57.5 -36t-79.5 -13.5t-80 13.5t-58 36t-35 52.5t-12 64v539h85v-539q0 -35 25.5 -59.5t74.5 -24.5q48 0 73.5 24.5t25.5 59.5v539h85v-539zM353 873q0 -61 -31.5 -88t-91.5 -27q-61 0 -92.5 27t-31.5 88h63q0 -38 15.5 -51t45.5 -13
q29 0 44.5 13t15.5 51h63z" />
    <glyph glyph-name="ubreve" unicode="&#x16d;" horiz-adv-x="439" 
d="M378 500v-356q0 -30 -10.5 -57.5t-30.5 -47.5t-50.5 -32t-69.5 -12q-40 0 -70 12t-50.5 32t-30.5 47.5t-10 57.5v356h78v-356q0 -29 20.5 -50.5t62.5 -21.5q41 0 61.5 21.5t20.5 50.5v356h79zM336 673q0 -61 -31.5 -88t-91.5 -27q-61 0 -92.5 27t-31.5 88h63
q0 -38 15.5 -51t45.5 -13q29 0 44.5 13t15.5 51h63z" />
    <glyph glyph-name="Uring" unicode="&#x16e;" horiz-adv-x="478" 
d="M423 161q0 -34 -12 -64t-35 -52.5t-57.5 -36t-79.5 -13.5t-80 13.5t-58 36t-35 52.5t-12 64v539h85v-539q0 -35 25.5 -59.5t74.5 -24.5q48 0 73.5 24.5t25.5 59.5v539h85v-539zM139 810q0 38 26 64t64 26t64 -26t26 -64t-26 -64t-64 -26t-64 26t-26 64zM179 810
q0 -21 14.5 -35.5t35.5 -14.5t35.5 14.5t14.5 35.5t-14.5 35.5t-35.5 14.5t-35.5 -14.5t-14.5 -35.5z" />
    <glyph glyph-name="uring" unicode="&#x16f;" horiz-adv-x="439" 
d="M378 500v-356q0 -30 -10.5 -57.5t-30.5 -47.5t-50.5 -32t-69.5 -12q-40 0 -70 12t-50.5 32t-30.5 47.5t-10 57.5v356h78v-356q0 -29 20.5 -50.5t62.5 -21.5q41 0 61.5 21.5t20.5 50.5v356h79zM122 610q0 38 26 64t64 26t64 -26t26 -64t-26 -64t-64 -26t-64 26t-26 64z
M162 610q0 -21 14.5 -35.5t35.5 -14.5t35.5 14.5t14.5 35.5t-14.5 35.5t-35.5 14.5t-35.5 -14.5t-14.5 -35.5z" />
    <glyph glyph-name="Uhungarumlaut" unicode="&#x170;" horiz-adv-x="478" 
d="M423 161q0 -34 -12 -64t-35 -52.5t-57.5 -36t-79.5 -13.5t-80 13.5t-58 36t-35 52.5t-12 64v539h85v-539q0 -35 25.5 -59.5t74.5 -24.5q48 0 73.5 24.5t25.5 59.5v539h85v-539zM176 765h-40l80 135h70zM292 765h-40l80 135h70z" />
    <glyph glyph-name="uhungarumlaut" unicode="&#x171;" horiz-adv-x="440" 
d="M378 500v-356q0 -30 -10.5 -57.5t-30.5 -47.5t-50.5 -32t-69.5 -12q-40 0 -70 12t-50.5 32t-30.5 47.5t-10 57.5v356h78v-356q0 -29 20.5 -50.5t62.5 -21.5q41 0 61.5 21.5t20.5 50.5v356h79zM159 565h-40l80 135h70zM275 565h-40l80 135h70z" />
    <glyph glyph-name="Uogonek" unicode="&#x172;" horiz-adv-x="478" 
d="M239 -10q-45 0 -80 14t-58 37.5t-35 54.5t-12 65v539h85v-539q0 -35 25.5 -59.5t74.5 -24.5q48 0 73.5 24.5t25.5 59.5v539h85v-530q0 -47 -18.5 -87t-54.5 -64q-23 -22 -36.5 -48t-13.5 -46q0 -21 12 -32t33 -11q20 0 49 14l15 -36q-15 -9 -34.5 -15t-40.5 -6
q-36 0 -58 22.5t-22 54.5q0 17 7 36.5t24 41.5q-11 -2 -22 -3t-24 -1z" />
    <glyph glyph-name="uogonek" unicode="&#x173;" horiz-adv-x="439" 
d="M217 -5q-40 0 -70 12t-50.5 32t-30.5 47.5t-10 57.5v356h78v-356q0 -29 20.5 -50.5t62.5 -21.5q41 0 61.5 21.5t20.5 50.5v356h79v-365q0 -37 -16.5 -68t-48.5 -50q-22 -21 -35 -46.5t-13 -45.5q0 -21 12 -32t33 -11q20 0 49 14l15 -36q-15 -9 -34.5 -15t-40.5 -6
q-36 0 -58 22.5t-22 54.5q0 38 34 81q-9 -1 -17.5 -1.5t-18.5 -0.5z" />
    <glyph glyph-name="Wcircumflex" unicode="&#x174;" horiz-adv-x="702" 
d="M248 0h-79l-150 700h86l92 -429q5 -25 7 -50t5 -50q3 25 4.5 50t6.5 50l92 429h79l92 -429q5 -25 6.5 -50t4.5 -50q3 25 5 50t7 50l91 429h86l-149 -700h-79l-92 430q-5 23 -7 45t-5 45q-3 -23 -4.5 -45t-6.5 -45zM493 765h-70l-68 69l-69 -69h-70l109 135h60z" />
    <glyph glyph-name="wcircumflex" unicode="&#x175;" horiz-adv-x="568" 
d="M549 500l-120 -500h-69l-72 307q-2 10 -2.5 19t-1.5 19q-1 -10 -1.5 -19t-2.5 -19l-72 -307h-68l-121 500h79l71 -307q2 -11 2.5 -21t2.5 -21q2 11 2.5 21t2.5 21l71 307h69l71 -307q2 -11 3 -21t3 -21q1 11 1 21t2 21l71 307h79zM428 565h-70l-68 69l-69 -69h-70
l109 135h60z" />
    <glyph glyph-name="Ycircumflex" unicode="&#x176;" horiz-adv-x="465" 
d="M355 700h91l-171 -426v-274h-86v275l-170 425h92l101 -255q8 -19 11.5 -38.5t8.5 -39.5q5 20 9 40t12 39zM363 765h-70l-68 69l-69 -69h-70l109 135h60z" />
    <glyph glyph-name="ycircumflex" unicode="&#x177;" horiz-adv-x="416" 
d="M181 189q9 -31 13 -63t10 -64q6 32 11 63.5t13 62.5l86 312h78l-205 -750h-78l56 208q-38 131 -77.5 271.5t-76.5 270.5h80zM346 565h-70l-68 69l-69 -69h-70l109 135h60z" />
    <glyph glyph-name="Ydieresis" unicode="&#x178;" horiz-adv-x="465" 
d="M355 700h91l-171 -426v-274h-86v275l-170 425h92l101 -255q8 -19 11.5 -38.5t8.5 -39.5q5 20 9 40t12 39zM117 855h75v-90h-75v90zM237 855h75v-90h-75v90z" />
    <glyph glyph-name="Zacute" unicode="&#x179;" horiz-adv-x="385" 
d="M120 81h242v-81h-340v59l242 560h-242v81h340v-59zM202 765h-60l80 135h110z" />
    <glyph glyph-name="zacute" unicode="&#x17a;" horiz-adv-x="361" 
d="M126 77h207v-77h-306v56l208 367h-208v77h306v-56zM192 565h-60l80 135h110z" />
    <glyph glyph-name="Zdotaccent" unicode="&#x17b;" horiz-adv-x="385" 
d="M120 81h242v-81h-340v59l242 560h-242v81h340v-59zM160 855h75v-90h-75v90z" />
    <glyph glyph-name="zdotaccent" unicode="&#x17c;" horiz-adv-x="361" 
d="M126 77h207v-77h-306v56l208 367h-208v77h306v-56zM150 655h75v-90h-75v90z" />
    <glyph glyph-name="Zcaron" unicode="&#x17d;" horiz-adv-x="385" 
d="M120 81h242v-81h-340v59l242 560h-242v81h340v-59zM224 765h-60l-109 135h70l69 -69l68 69h70z" />
    <glyph glyph-name="zcaron" unicode="&#x17e;" horiz-adv-x="361" 
d="M126 77h207v-77h-306v56l208 367h-208v77h306v-56zM214 565h-60l-109 135h70l69 -69l68 69h70z" />
    <glyph glyph-name="florin" unicode="&#x192;" horiz-adv-x="329" 
d="M161 -41q0 -29 -11.5 -54.5t-34.5 -44t-57 -29.5t-79 -11v75q30 0 50 5.5t32 14.5t17 20.5t5 23.5v462h-74v74h74v91q0 31 10.5 58t31 47.5t51 32t71.5 11.5h52v-75h-52q-25 0 -41.5 -6t-26.5 -16.5t-14 -24t-4 -27.5v-627zM318 495v-74h-120l-37 74h157z" />
    <glyph glyph-name="aeacute" unicode="&#x1fd;" horiz-adv-x="657" 
d="M449 0q-45 0 -76.5 18t-48.5 47q-18 -33 -49.5 -51.5t-82.5 -18.5q-44 0 -73 10.5t-46.5 29.5t-25 45.5t-7.5 58.5q0 37 12.5 64t34 45.5t49.5 29.5t59 16l91 15v43q0 29 -20 50t-56 21h-137v77h137q39 0 67 -16t45 -43q17 31 48.5 49.5t78.5 18.5q39 0 68.5 -11t50 -30
t31 -44.5t10.5 -53.5v-151h-246v-71q0 -30 21.5 -50.5t64.5 -20.5h146v-77h-146zM363 295h167v75q0 26 -21 44t-60 18q-43 0 -64.5 -21t-21.5 -50v-66zM196 74q45 0 67.5 24t22.5 59v74l-79 -14q-35 -6 -61.5 -23.5t-26.5 -55.5q0 -14 2.5 -25.5t11 -20t23.5 -13.5t40 -5z
M351 565h-60l80 135h110z" />
    <glyph glyph-name="oslashacute" unicode="&#x1ff;" horiz-adv-x="421" 
d="M210 72q43 0 65.5 21.5t22.5 50.5v176l79 35v-211q0 -30 -11 -57.5t-32 -47.5t-52.5 -32t-71.5 -12q-42 0 -72.5 12t-52.5 32l-44 -63l-31 23l51 73q-18 31 -18 72v212q0 30 11 57.5t32 47.5t52 32t72 12t71.5 -12t52.5 -32l45 64l31 -23l-52 -73q19 -35 19 -73h-70
l-175 -249q11 -16 30 -25.5t48 -9.5zM122 159l165 235q-11 15 -30 24.5t-47 9.5q-44 0 -66 -21.5t-22 -50.5v-197zM233 565h-60l80 135h110z" />
    <glyph glyph-name="uni0218" unicode="&#x218;" horiz-adv-x="443" 
d="M403 188q0 -91 -46.5 -139.5t-134.5 -48.5h-173v81h173q47 0 71.5 25.5t24.5 79.5q0 33 -9 53.5t-25 34t-37.5 21.5t-45.5 16q-27 9 -54 20.5t-49.5 30t-37.5 47.5t-18 74l84 34v-5q0 -34 9.5 -54.5t25 -33.5t36.5 -21t44 -15q31 -11 60.5 -24.5t52 -36t36 -56
t13.5 -83.5zM221 619q-91 0 -95 -98h-85q2 87 48 133t131 46h162v-81h-161zM185 -115v60h72v-60q0 -29 -14.5 -48t-43.5 -19h-14v33h14q13 0 17.5 10t4.5 24h-36z" />
    <glyph glyph-name="uni0219" unicode="&#x219;" horiz-adv-x="395" 
d="M37 357v7q0 60 41.5 98t117.5 38h136v-77h-136q-38 0 -59 -16t-21 -41v-9h-79zM116 355q2 -15 10 -25.5t20 -17t26.5 -11.5t29.5 -9q39 -12 69 -23t49.5 -27.5t29.5 -40t10 -60.5q0 -68 -42.5 -104.5t-117.5 -36.5h-163v77h162q38 0 60 16t22 45q0 35 -25 50t-73 28
q-19 5 -41 11t-42 17.5t-36 30t-23 47.5zM164 -115v60h72v-60q0 -29 -14.5 -48t-43.5 -19h-14v33h14q13 0 17.5 10t4.5 24h-36z" />
    <glyph glyph-name="uni021A" unicode="&#x21a;" horiz-adv-x="417" 
d="M251 619v-619h-85v585l85 34h-222v81h359v-81h-137zM163 -115v60h72v-60q0 -29 -14.5 -48t-43.5 -19h-14v33h14q13 0 17.5 10t4.5 24h-36z" />
    <glyph glyph-name="uni021B" unicode="&#x21b;" horiz-adv-x="315" 
d="M129 495h157v-74h-120l-37 74v-310q0 -21 4 -40.5t13.5 -34.5t26 -24t41.5 -9h81v-77h-81q-41 0 -71.5 14.5t-51 39t-31 58.5t-10.5 73v425h79v-115zM121 -115v60h72v-60q0 -29 -14.5 -48t-43.5 -19h-14v33h14q13 0 17.5 10t4.5 24h-36z" />
    <glyph glyph-name="dotlessj" unicode="&#x237;" horiz-adv-x="187" 
d="M54 -241v741h79v-706z" />
    <glyph glyph-name="circumflex" unicode="&#x2c6;" horiz-adv-x="387" 
d="M332 565h-70l-68 69l-69 -69h-70l109 135h60z" />
    <glyph glyph-name="caron" unicode="&#x2c7;" horiz-adv-x="387" 
d="M224 565h-60l-109 135h70l69 -69l68 69h70z" />
    <glyph glyph-name="breve" unicode="&#x2d8;" horiz-adv-x="337" 
d="M292 673q0 -61 -31.5 -88t-91.5 -27q-61 0 -92.5 27t-31.5 88h63q0 -38 15.5 -51t45.5 -13q29 0 44.5 13t15.5 51h63z" />
    <glyph glyph-name="dotaccent" unicode="&#x2d9;" horiz-adv-x="165" 
d="M45 655h75v-90h-75v90z" />
    <glyph glyph-name="ring" unicode="&#x2da;" horiz-adv-x="202" 
d="M11 610q0 38 26 64t64 26t64 -26t26 -64t-26 -64t-64 -26t-64 26t-26 64zM51 610q0 -21 14.5 -35.5t35.5 -14.5t35.5 14.5t14.5 35.5t-14.5 35.5t-35.5 14.5t-35.5 -14.5t-14.5 -35.5z" />
    <glyph glyph-name="ogonek" unicode="&#x2db;" horiz-adv-x="263" 
d="M54 -84q0 23 13 49t43 57l22 -22q-32 -43 -32 -75q0 -21 12 -32t33 -11q20 0 49 14l15 -36q-15 -9 -34.5 -15t-40.5 -6q-36 0 -58 22.5t-22 54.5z" />
    <glyph glyph-name="tilde" unicode="&#x2dc;" horiz-adv-x="390" 
d="M262 609q24 0 59 33l24 -42q-24 -21 -44 -32.5t-37 -11.5q-24 0 -73 25q-47 25 -61 25q-28 0 -63 -31l-22 42q44 43 84 43q26 0 70 -26q23 -14 38.5 -19.5t24.5 -5.5z" />
    <glyph glyph-name="hungarumlaut" unicode="&#x2dd;" horiz-adv-x="352" 
d="M83 565h-40l80 135h70zM199 565h-40l80 135h70z" />
    <glyph glyph-name="afii10023" unicode="&#x401;" horiz-adv-x="433" 
d="M148 391v-203q4 -107 95 -107h151v-81h-152q-88 0 -133.5 48.5t-45.5 139.5v512h331v-81h-246v-228h199v-82h-164zM129 855h75v-90h-75v90zM249 855h75v-90h-75v90z" />
    <glyph glyph-name="afii10051" unicode="&#x402;" horiz-adv-x="526" 
d="M387 317q0 27 -5 48.5t-17 36.5t-32.5 23.5t-51.5 8.5q-29 0 -52.5 -13t-40.5 -35v-386h-85v619h-90v81h369v-81h-194v-37q0 -48 -3 -93q21 12 47.5 19.5t58.5 7.5q44 0 78 -16t57 -43.5t34.5 -63.5t11.5 -76v-137q0 -38 -10.5 -71t-31.5 -57t-52.5 -38t-72.5 -14h-54v81
h54q42 0 62 28.5t20 70.5v137z" />
    <glyph glyph-name="afii10052" unicode="&#x403;" horiz-adv-x="377" 
d="M70 0v700h303v-81h-218v-619h-85zM204 765h-60l80 135h110z" />
    <glyph glyph-name="afii10053" unicode="&#x404;" horiz-adv-x="414" 
d="M139 391v-203q0 -107 94 -107h161v-81h-162q-88 0 -133 48.5t-45 139.5v324q0 91 45 139.5t133 48.5h162v-81h-161q-94 0 -94 -107v-121h217v-82h-182z" />
    <glyph glyph-name="afii10054" unicode="&#x405;" horiz-adv-x="443" 
d="M403 188q0 -91 -46.5 -139.5t-134.5 -48.5h-173v81h173q47 0 71.5 25.5t24.5 79.5q0 33 -9 53.5t-25 34t-37.5 21.5t-45.5 16q-27 9 -54 20.5t-49.5 30t-37.5 47.5t-18 74l84 34v-5q0 -34 9.5 -54.5t25 -33.5t36.5 -21t44 -15q31 -11 60.5 -24.5t52 -36t36 -56
t13.5 -83.5zM221 619q-91 0 -95 -98h-85q2 87 48 133t131 46h162v-81h-161z" />
    <glyph glyph-name="afii10055" unicode="&#x406;" horiz-adv-x="211" 
d="M148 700v-700h-85v700h85z" />
    <glyph glyph-name="afii10056" unicode="&#x407;" horiz-adv-x="176" 
d="M-8 855h75v-90h-75v90zM112 855h75v-90h-75v90zM148 700v-700h-85v700h85z" />
    <glyph glyph-name="afii10057" unicode="&#x408;" horiz-adv-x="314" 
d="M175 700h85v-512q0 -91 -45 -139.5t-133 -48.5h-68v81h67q94 0 94 107v512z" />
    <glyph glyph-name="afii10058" unicode="&#x409;" horiz-adv-x="637" 
d="M300 619h-160l3 81h242v-251h38q43 0 77 -13.5t56.5 -36.5t34.5 -54t12 -66v-109q0 -35 -12 -65.5t-34.5 -54t-56.5 -37t-77 -13.5h-123v619zM223 619q-4 -164 -12 -281t-25.5 -192t-46.5 -110.5t-74 -35.5h-54v81h45q21 0 34.5 25.5t22.5 84.5t15 155.5t11 239.5z
M423 81q45 0 69.5 26.5t24.5 62.5v109q0 36 -24 62.5t-70 26.5h-3l-35 81v-368h38z" />
    <glyph glyph-name="afii10059" unicode="&#x40a;" horiz-adv-x="655" 
d="M148 391v-391h-85v700h85v-309h169v309h86v-251h38q43 0 77 -13.5t56.5 -36.5t34.5 -54t12 -66v-109q0 -35 -12 -65.5t-34.5 -54t-56.5 -37t-77 -13.5h-124v309h-131zM403 449v-368h38q45 0 70 26.5t25 62.5v109q0 36 -24.5 62.5t-70.5 26.5h-3z" />
    <glyph glyph-name="afii10060" unicode="&#x40b;" horiz-adv-x="485" 
d="M195 449v-449h-85v619h-100v81h360v-81h-175v-170h75q44 0 77.5 -14.5t56.5 -39t34.5 -57t11.5 -68.5v-270h-85v270q0 40 -24 69t-71 29h-40z" />
    <glyph glyph-name="afii10061" unicode="&#x40c;" horiz-adv-x="470" 
d="M238 765h-60l80 135h110zM148 373v-373h-85v700h85v-309h18l183 309h94l-201 -341l211 -359h-95l-182 309z" />
    <glyph glyph-name="afii10062" unicode="&#x40e;" horiz-adv-x="459" 
d="M357 700h88l-162 -564q-6 -21 -14 -45t-21.5 -45t-34.5 -34.5t-53 -13.5h-58v81h58q11 0 18 7t11 18t6.5 24t5.5 25l-166 547h88l102 -336q8 -25 12 -50.5t9 -51.5q4 26 6 51.5t9 50.5zM349 873q0 -61 -31.5 -88t-91.5 -27q-61 0 -92.5 27t-31.5 88h63q0 -38 15.5 -51
t45.5 -13q29 0 44.5 13t15.5 51h63z" />
    <glyph glyph-name="afii10145" unicode="&#x40f;" horiz-adv-x="495" 
d="M68 700h85v-619h189v619h85v-700h-137v-150h-85v150h-137v700z" />
    <glyph glyph-name="afii10017" unicode="&#x410;" 
d="M176 257h143l-58 218q-8 29 -9 58t-5 58q-3 -29 -4 -58t-9 -58l-129 -475h-87l192 700h75l192 -700h-87l-48 176h-131z" />
    <glyph glyph-name="afii10018" unicode="&#x411;" horiz-adv-x="474" 
d="M148 435h85q43 0 77 -13t56.5 -34.5t34.5 -51t12 -62.5v-113q0 -33 -12 -62.5t-34.5 -51t-56.5 -34.5t-77 -13h-170v700h321v-81h-236v-184zM148 435v-354h85q26 0 44 6.5t29 17.5t16 25.5t5 30.5v113q0 16 -5 30.5t-16 25.5t-29 17.5t-44 6.5h-50z" />
    <glyph glyph-name="afii10019" unicode="&#x412;" horiz-adv-x="464" 
d="M63 700h160q44 0 77.5 -13.5t56.5 -37t34.5 -54.5t11.5 -65v-52q0 -39 -22.5 -71.5t-68.5 -53.5q45 -22 73 -57t28 -74v-52q0 -35 -12 -65.5t-34.5 -54t-56.5 -37t-77 -13.5h-170v700zM148 81h85q46 0 70 26.5t24 62.5v52q0 36 -26.5 61.5t-77.5 25.5h-40l-35 82v-310z
M214 391q51 0 77.5 25.5t26.5 61.5v52q0 36 -24 62.5t-71 26.5h-75v-228h66z" />
    <glyph glyph-name="afii10020" unicode="&#x413;" horiz-adv-x="377" 
d="M63 0v700h303v-81h-218v-619h-85z" />
    <glyph glyph-name="afii10021" unicode="&#x414;" horiz-adv-x="477" 
d="M133 586l85 33h-85l3 81h280v-586l-85 -33v538h-113q-6 -209 -20.5 -341t-48.5 -197h315v-231h-81v150h-293v-150h-79v231q31 0 51.5 25.5t34 85t22 156t14.5 238.5z" />
    <glyph glyph-name="afii10022" unicode="&#x415;" horiz-adv-x="433" 
d="M148 391v-203q4 -107 95 -107h151v-81h-152q-88 0 -133.5 48.5t-45.5 139.5v512h331v-81h-246v-228h199v-82h-164z" />
    <glyph glyph-name="afii10024" unicode="&#x416;" horiz-adv-x="734" 
d="M410 700v-309h18l182 309h95l-202 -341l211 -359h-94l-210 354v-354h-85v309h-28l-182 -309h-95l210 359l-200 341h94l201 -340v340h85z" />
    <glyph glyph-name="afii10025" unicode="&#x417;" horiz-adv-x="422" 
d="M183 81q49 0 76 24t27 56v61q0 36 -27 61.5t-76 25.5h-109l-34 82h141q47 0 71 25.5t24 61.5v61q0 32 -24 56t-71 24h-161v81h161q44 0 77.5 -13t56.5 -35t34.5 -51t11.5 -62v-61q0 -38 -17 -71.5t-51 -55.5q36 -21 57 -55t21 -74v-61q0 -33 -12.5 -62t-36.5 -51t-59 -35
t-80 -13h-161v81h161z" />
    <glyph glyph-name="afii10026" unicode="&#x418;" horiz-adv-x="495" 
d="M347 308l7 194l-213 -502h-78v700h85v-309l-7 -191q53 125 107 251t105 249h79v-700h-85v308z" />
    <glyph glyph-name="afii10027" unicode="&#x419;" horiz-adv-x="495" 
d="M347 308l7 194l-213 -502h-78v700h85v-309l-7 -191q53 125 107 251t105 249h79v-700h-85v308zM362 873q0 -61 -31.5 -88t-91.5 -27q-61 0 -92.5 27t-31.5 88h63q0 -38 15.5 -51t45.5 -13q29 0 44.5 13t15.5 51h63z" />
    <glyph glyph-name="afii10028" unicode="&#x41a;" horiz-adv-x="470" 
d="M148 373v-373h-85v700h85v-309h18l183 309h94l-201 -341l211 -359h-95l-182 309z" />
    <glyph glyph-name="afii10029" unicode="&#x41b;" horiz-adv-x="476" 
d="M328 619h-189l3 81h271v-700h-85v619zM223 619q-4 -164 -12.5 -281t-25.5 -192t-46 -110.5t-74 -35.5h-54v81h44q21 0 34.5 25.5t22.5 84.5t15 155.5t11 239.5z" />
    <glyph glyph-name="afii10030" unicode="&#x41c;" horiz-adv-x="581" 
d="M408 700h109v-700h-85v493l-4 -35l-100 -365h-76l-100 365l-5 34q1 -28 1 -57v-58v-377h-85v700h109l92 -332q14 -64 26 -130q6 32 12.5 66t14.5 64z" />
    <glyph glyph-name="afii10031" unicode="&#x41d;" horiz-adv-x="495" 
d="M148 392v-392h-85v700h85v-308h199v308h85v-700h-85v308h-164z" />
    <glyph glyph-name="afii10032" unicode="&#x41e;" 
d="M357 521q-2 52 -26.5 77t-68.5 25h-28q-46 0 -70.5 -27t-24.5 -84v-324q0 -57 24.5 -84t70.5 -27h28q46 0 70.5 27t24.5 84v295l85 34v-329q0 -93 -45.5 -143t-133.5 -50h-30q-88 0 -133.5 50t-45.5 143v324q0 93 45.5 143t133.5 50h30q39 0 72 -11.5t56.5 -33t37 -53.5
t13.5 -73v-13h-85z" />
    <glyph glyph-name="afii10033" unicode="&#x41f;" horiz-adv-x="485" 
d="M63 619v81h359v-700h-85v619h-189v-619h-85v586l85 33h-85z" />
    <glyph glyph-name="afii10034" unicode="&#x420;" horiz-adv-x="439" 
d="M63 0v700h161q44 0 77.5 -14.5t56.5 -39t34.5 -57t11.5 -69.5v-90q0 -36 -11.5 -68.5t-34.5 -57t-56.5 -39t-77.5 -14.5h-40l-35 81v-332h-86zM224 332q47 0 71 29t24 69v90q0 40 -24 69.5t-71 29.5h-75v-287h75z" />
    <glyph glyph-name="afii10035" unicode="&#x421;" horiz-adv-x="414" 
d="M139 188q0 -107 94 -107h161v-81h-162q-88 0 -133 48.5t-45 139.5v295l85 34v-329zM233 619q-91 0 -94 -98h-85q2 86 47.5 132.5t130.5 46.5h162v-81h-161z" />
    <glyph glyph-name="afii10036" unicode="&#x422;" horiz-adv-x="417" 
d="M251 619v-619h-85v585l85 34h-222v81h359v-81h-137z" />
    <glyph glyph-name="afii10037" unicode="&#x423;" horiz-adv-x="459" 
d="M346 700h88l-162 -564q-6 -21 -14 -45t-21.5 -45t-34.5 -34.5t-53 -13.5h-58v81h58q11 0 18 7t11 18t6.5 24t5.5 25l-166 547h88l102 -336q8 -25 12 -50.5t9 -51.5q4 26 6 51.5t9 50.5z" />
    <glyph glyph-name="afii10038" unicode="&#x424;" horiz-adv-x="553" 
d="M319 117v-117h-85v85h-14q-45 0 -79.5 13.5t-58 37t-35.5 54t-12 65.5v190q0 34 12 65t35.5 54.5t58 37t79.5 13.5l14 -33v118h85v-85h14q45 0 79.5 -13.5t58 -37t35.5 -54.5t12 -65v-190q0 -35 -12 -65.5t-35.5 -54t-58 -37t-79.5 -13.5zM234 166v368h-14
q-49 0 -74.5 -26.5t-25.5 -62.5v-190q0 -36 25 -62.5t75 -26.5h14zM319 166h14q49 0 74.5 26.5t25.5 62.5v190q0 36 -25.5 62.5t-74.5 26.5h-14v-368z" />
    <glyph glyph-name="afii10039" unicode="&#x425;" horiz-adv-x="479" 
d="M109 0h-90l175 359l-165 341h90l77 -159q13 -26 23 -53t21 -54q11 27 20 54t22 53l78 159h90l-167 -341l176 -359h-90l-78 161q-15 32 -27 64.5t-25 64.5q-13 -32 -25 -64.5t-27 -64.5z" />
    <glyph glyph-name="afii10040" unicode="&#x426;" horiz-adv-x="483" 
d="M63 0v700h86v-619h321v-223h-80v142h-327zM338 81v619h85v-586z" />
    <glyph glyph-name="afii10041" unicode="&#x427;" horiz-adv-x="445" 
d="M295 700h86v-700h-86v700zM260 332l35 -81h-75q-44 0 -77.5 14.5t-56.5 39t-34.5 57t-11.5 68.5v270h85v-270q0 -40 24 -69t71 -29h40z" />
    <glyph glyph-name="afii10042" unicode="&#x428;" horiz-adv-x="637" 
d="M489 81v619h85v-700h-511v700h85v-619h341zM276 81v619h85v-586z" />
    <glyph glyph-name="afii10043" unicode="&#x429;" horiz-adv-x="634" 
d="M63 0v700h85v-619h340v619h85v-619h48v-231h-81v150h-477zM275 81v619h85v-586z" />
    <glyph glyph-name="afii10044" unicode="&#x42a;" horiz-adv-x="494" 
d="M118 586l85 33v-170h76q43 0 77 -14.5t56.5 -39t34.5 -57t12 -68.5v-90q0 -37 -12 -69.5t-34.5 -57t-56.5 -39t-77 -14.5h-161v586zM279 81q46 0 70 29.5t24 69.5v90q0 40 -24 69t-70 29h-41l-35 81v-368h76zM-5 619v81h208v-81h-208z" />
    <glyph glyph-name="afii10045" unicode="&#x42b;" horiz-adv-x="598" 
d="M149 449h76q43 0 77 -14.5t56.5 -39t34.5 -57t12 -68.5v-90q0 -37 -12 -69.5t-34.5 -57t-56.5 -39t-77 -14.5h-161v700h85v-251zM534 700v-700h-85v700h85zM149 449v-368h76q46 0 70 29.5t24 69.5v90q0 40 -24.5 69t-69.5 29h-41z" />
    <glyph glyph-name="afii10046" unicode="&#x42c;" horiz-adv-x="439" 
d="M149 449h75q44 0 77.5 -14.5t56.5 -39t34.5 -57t11.5 -68.5v-90q0 -37 -11.5 -69.5t-34.5 -57t-56.5 -39t-77.5 -14.5h-161v700h86v-251zM149 449v-368h75q47 0 71 29.5t24 69.5v90q0 40 -24 69t-71 29h-40z" />
    <glyph glyph-name="afii10047" unicode="&#x42d;" horiz-adv-x="414" 
d="M275 512q0 107 -95 107h-160v81h161q88 0 133.5 -48.5t45.5 -139.5v-324q0 -91 -45.5 -139.5t-133.5 -48.5h-161v81h160q95 0 95 107v324zM240 391l35 -82h-218v82h183z" />
    <glyph glyph-name="afii10048" unicode="&#x42e;" horiz-adv-x="637" 
d="M148 391v-391h-85v700h85v-309h76v148q0 35 11.5 66t34 54t56.5 36.5t78 13.5q43 0 76.5 -13.5t56.5 -36.5t34.5 -54t11.5 -66v-378q0 -35 -11.5 -66t-34.5 -54t-56.5 -36.5t-76.5 -13.5q-44 0 -78 13.5t-56.5 36.5t-34 54t-11.5 66v148h-41zM498 539q0 36 -24 62.5
t-70 26.5q-47 0 -71 -26.5t-24 -62.5v-378q0 -36 24 -62.5t71 -26.5q46 0 70 26.5t24 62.5v378z" />
    <glyph glyph-name="afii10049" unicode="&#x42f;" horiz-adv-x="455" 
d="M392 619h-160q-47 0 -71 -29.5t-24 -69.5v-90q0 -40 24 -69t71 -29h40l35 -81h-78l-97 -251h-91l102 271q-46 23 -68.5 65t-22.5 94v90q0 37 11.5 69.5t34.5 57t56.5 39t77.5 14.5h160v-81zM307 586l85 33v-619h-85v586z" />
    <glyph glyph-name="afii10065" unicode="&#x430;" horiz-adv-x="419" 
d="M40 139q0 37 13 64t34.5 45.5t49.5 29.5t58 16l59 9l32 -72l-79 -14q-35 -6 -61.5 -23.5t-26.5 -55.5q0 -14 2.5 -25.5t11 -20t23.5 -13.5t40 -5q45 0 67.5 24t22.5 59v195q0 29 -20 50t-56 21h-137v77h137q37 0 66 -11.5t48.5 -32t29.5 -47.5t10 -57v-352h-54l-9 34
q-39 -39 -109 -39q-44 0 -73 10.5t-46.5 29.5t-25 45.5t-7.5 58.5z" />
    <glyph glyph-name="afii10066" unicode="&#x431;" horiz-adv-x="435" 
d="M220 500q39 0 69.5 -11.5t51.5 -31t32 -46t11 -55.5v-212q0 -30 -11 -57.5t-32 -47.5t-52.5 -32t-71.5 -12q-41 0 -72 12t-52 32t-32 47.5t-11 57.5v381q0 51 17.5 84.5t41.5 53.5t50 29.5t44 13.5l147 36l19 -74l-146 -36q-11 -3 -27 -9t-31 -18.5t-25.5 -32.5
t-10.5 -49v-23h91zM165 425l-36 75v-356q0 -29 22 -50.5t66 -21.5q43 0 65.5 21.5t22.5 50.5v212q0 29 -22.5 49t-62.5 20h-55z" />
    <glyph glyph-name="afii10067" unicode="&#x432;" horiz-adv-x="419" 
d="M59 0v500h164q72 0 111 -35t39 -91v-37q0 -27 -15 -47.5t-41 -33.5q31 -14 48.5 -36t17.5 -54v-37q0 -62 -43 -95.5t-117 -33.5h-164zM221 291q35 0 54.5 10t19.5 35v37q0 23 -17 36.5t-55 13.5h-86v-132h84zM173 214l-36 77v-214h88q44 0 61.5 12.5t17.5 38.5v37
q0 28 -20 38.5t-63 10.5h-48z" />
    <glyph glyph-name="afii10068" unicode="&#x433;" horiz-adv-x="323" 
d="M59 500h245v-77h-166v-423h-79v500z" />
    <glyph glyph-name="afii10069" unicode="&#x434;" horiz-adv-x="410" 
d="M108 393l80 30h-78q1 18 1.5 37t2.5 40h240v-393l-79 -30v346h-87q-6 -126 -20 -211.5t-37 -134.5h268v-179h-77v102h-236v-102h-77l3 179q22 0 37.5 16.5t27 54t18.5 98t13 147.5z" />
    <glyph glyph-name="afii10070" unicode="&#x435;" horiz-adv-x="422" 
d="M164 219l-35 76v-147q0 -30 21 -50.5t64 -20.5h146v-77h-146q-41 0 -71.5 11.5t-51 31.5t-31 47t-10.5 58v213q0 30 10.5 56t31 45.5t51 31t71.5 11.5q39 0 69 -10.5t50 -29t30.5 -43t10.5 -52.5v-151h-210zM129 295h166v75q0 24 -20.5 41t-60.5 17q-43 0 -64 -20
t-21 -47v-66z" />
    <glyph glyph-name="afii10072" unicode="&#x436;" horiz-adv-x="621" 
d="M272 499h78v-204h19q35 50 70.5 103t70.5 102h91l-167 -244q19 -29 40.5 -62t43.5 -67t43 -66.5t40 -60.5h-92l-159 244v-244h-78v219h-17l-142 -219h-93l168 256q-19 28 -40.5 59t-43 63t-43 63.5t-40.5 58.5h92l159 -234v233z" />
    <glyph glyph-name="afii10073" unicode="&#x437;" horiz-adv-x="360" 
d="M164 77q38 0 60 19.5t22 54.5q0 33 -20.5 48t-63.5 15h-62l-34 77h96q39 0 61.5 17t22.5 50q0 32 -23 48.5t-58 16.5h-136v77h136q75 0 117.5 -39t42.5 -102q0 -38 -19.5 -63.5t-50.5 -41.5q32 -17 51 -42.5t19 -63.5q0 -33 -11.5 -60.5t-32.5 -47t-51 -30t-67 -10.5
h-136v77h137v0z" />
    <glyph glyph-name="afii10074" unicode="&#x438;" horiz-adv-x="442" 
d="M304 256v37.5t1 37.5l-172 -331h-74v500h78v-256v-38t-1 -38l173 332h74v-500h-79v256v0z" />
    <glyph glyph-name="afii10075" unicode="&#x439;" horiz-adv-x="442" 
d="M304 256v37.5t1 37.5l-172 -331h-74v500h78v-256v-38t-1 -38l173 332h74v-500h-79v256v0zM338 673q0 -61 -31.5 -88t-91.5 -27q-61 0 -92.5 27t-31.5 88h63q0 -38 15.5 -51t45.5 -13q29 0 44.5 13t15.5 51h63z" />
    <glyph glyph-name="afii10076" unicode="&#x43a;" horiz-adv-x="419" 
d="M59 499h78v-204h19q35 50 70.5 103t70.5 102h91l-167 -244q19 -29 40.5 -62t43.5 -67t43 -66.5t40 -60.5h-92l-159 244v-244h-78v499z" />
    <glyph glyph-name="afii10077" unicode="&#x43b;" horiz-adv-x="418" 
d="M280 423h-165l4 77h240v-500h-79v423zM192 423q-4 -111 -13 -190.5t-25 -131.5t-40 -76.5t-59 -24.5h-46v77h44q13 0 22.5 17t16.5 54.5t12 98t10 147.5z" />
    <glyph glyph-name="afii10078" unicode="&#x43c;" horiz-adv-x="524" 
d="M372 500h93v-500h-79v184v69.5t1 69.5q-5 -16 -11.5 -31.5t-12.5 -31.5l1 1q-16 -40 -35 -85t-35 -85h-63l-71 170l1 -1q-7 16 -13 31.5t-12 31.5q1 -35 1.5 -69.5t0.5 -69.5v-184h-79v500h93l88 -231l22 -63q5 16 10.5 31.5t11.5 31.5z" />
    <glyph glyph-name="afii10079" unicode="&#x43d;" horiz-adv-x="442" 
d="M137 289v-289h-78v500h78v-211h167v211h79v-500h-79v212h-132z" />
    <glyph glyph-name="afii10080" unicode="&#x43e;" horiz-adv-x="435" 
d="M217 72q43 0 65.5 21.5t22.5 50.5v176l79 35v-211q0 -30 -11 -57.5t-32 -47.5t-52.5 -32t-71.5 -12q-41 0 -72 12t-52 32t-32 47.5t-11 57.5v212q0 30 11 57.5t32 47.5t52 32t72 12q40 0 71.5 -12t52.5 -32t32 -47.5t11 -57.5h-79q0 29 -22 50.5t-66 21.5t-66 -21.5
t-22 -50.5v-212q0 -29 22 -50.5t66 -21.5z" />
    <glyph glyph-name="afii10081" unicode="&#x43f;" horiz-adv-x="442" 
d="M304 423h-245v77h324v-500h-79v423zM137 423v-423h-78v392z" />
    <glyph glyph-name="afii10082" unicode="&#x440;" horiz-adv-x="443" 
d="M138 77v-327h-79v750h169q41 0 71.5 -11.5t51 -32t31 -47.5t10.5 -57v-204q0 -30 -10.5 -57t-31 -47.5t-51 -32t-71.5 -11.5h-54zM138 77h90q43 0 64 21t21 50v204q0 29 -21 50t-64 21h-90v-346z" />
    <glyph glyph-name="afii10083" unicode="&#x441;" horiz-adv-x="414" 
d="M130 355q-1 -4 -1 -12v-186q0 -33 21.5 -56.5t63.5 -23.5h119v-77h-119q-41 0 -71.5 12.5t-51 34t-31 50t-10.5 60.5v163zM50 356q2 30 13.5 56t32 45.5t50 31t68.5 11.5h119v-77h-119q-38 0 -59 -19t-25 -48h-80z" />
    <glyph glyph-name="afii10084" unicode="&#x442;" horiz-adv-x="339" 
d="M209 419v-419h-79v388zM19 419v81h301v-81h-301z" />
    <glyph glyph-name="afii10085" unicode="&#x443;" horiz-adv-x="416" 
d="M181 189q9 -31 13 -63t10 -64q6 32 11 63.5t13 62.5l86 312h78l-205 -750h-78l56 208q-38 131 -77.5 271.5t-76.5 270.5h80z" />
    <glyph glyph-name="afii10086" unicode="&#x444;" horiz-adv-x="558" 
d="M318 30v-261h-79v231h-13q-43 0 -76 13.5t-55 36t-33.5 53t-11.5 64.5v166q0 34 11.5 64.5t33.5 53t55 36t76 13.5l13 -28v247l79 12v-231h14q43 0 76 -13.5t55 -36t33.5 -53t11.5 -64.5v-166q0 -34 -11.5 -64.5t-33.5 -53t-55 -36t-76 -13.5zM318 77h14q48 0 72.5 26.5
t24.5 63.5v166q0 37 -24.5 63.5t-72.5 26.5h-14v-346zM239 77v346h-13q-48 0 -73 -26.5t-25 -63.5v-166q0 -37 25 -63.5t73 -26.5h13z" />
    <glyph glyph-name="afii10087" unicode="&#x445;" horiz-adv-x="414" 
d="M97 0h-91l154 262l-138 238h89l82 -137l13 -26q4 11 14 26l81 137h89l-139 -237l156 -263h-92l-82 140q-16 26 -27 49l-27 -49z" />
    <glyph glyph-name="afii10088" unicode="&#x446;" horiz-adv-x="438" 
d="M427 77v-187h-77v110h-291v500h78v-423h290zM304 77v423h79v-391z" />
    <glyph glyph-name="afii10089" unicode="&#x447;" horiz-adv-x="415" 
d="M277 500h79v-500h-79v500zM241 244l36 -77h-74q-35 0 -65 8t-51.5 26t-33.5 46.5t-12 69.5v182h79v-182q0 -40 23.5 -56.5t59.5 -16.5h38z" />
    <glyph glyph-name="afii10090" unicode="&#x448;" horiz-adv-x="577" 
d="M439 77v423h79v-500h-459v500h79v-423h301zM249 77v423h79v-391z" />
    <glyph glyph-name="afii10091" unicode="&#x449;" horiz-adv-x="573" 
d="M59 0v500h79v-423h301v423h79v-423h44v-187h-77v110h-426zM249 77v423h79v-391z" />
    <glyph glyph-name="afii10092" unicode="&#x44a;" horiz-adv-x="448" 
d="M176 333h74q35 0 65 -8t51.5 -26t33.5 -46.5t12 -69.5v-37q0 -68 -43 -107t-116 -39h-156v423h-88v77h167v-167zM176 333v-256h77q37 0 58.5 18.5t21.5 50.5v37q0 40 -23.5 56.5t-59.5 16.5h-38z" />
    <glyph glyph-name="afii10093" unicode="&#x44b;" horiz-adv-x="541" 
d="M133 333h74q36 0 65.5 -8t51 -26t33.5 -46.5t12 -69.5v-37q0 -68 -43 -107t-116 -39h-156v500h79v-167zM408 500h79v-500h-79v500zM133 333v-256h77q37 0 59 18.5t22 50.5v37q0 40 -24 56.5t-60 16.5h-38z" />
    <glyph glyph-name="afii10094" unicode="&#x44c;" horiz-adv-x="410" 
d="M138 333h74q36 0 65.5 -8t51 -26t33.5 -46.5t12 -69.5v-37q0 -68 -43 -107t-116 -39h-156v500h79v-167zM138 333v-256h77q37 0 59 18.5t22 50.5v37q0 40 -24 56.5t-60 16.5h-38z" />
    <glyph glyph-name="afii10095" unicode="&#x44d;" horiz-adv-x="353" 
d="M224 333q0 37 -21.5 63.5t-63.5 26.5h-119v77h119q40 0 71 -13.5t51.5 -36t31 -53t10.5 -64.5v-166q0 -34 -10.5 -64.5t-31 -53t-51.5 -36t-71 -13.5h-119v77h119q42 0 63.5 26.5t21.5 63.5v166zM188 289l36 -77h-174v77h138z" />
    <glyph glyph-name="afii10096" unicode="&#x44e;" horiz-adv-x="563" 
d="M138 289v-289h-79v500h79v-211h60v72q0 30 10 57t30 47.5t49.5 32t68.5 11.5q38 0 67 -11.5t49 -32t30.5 -47.5t10.5 -57v-222q0 -30 -10.5 -57t-30.5 -47.5t-49 -32t-67 -11.5q-39 0 -68.5 11.5t-49.5 32t-30 47.5t-10 57v73h-24zM356 68q38 0 58 21t20 50v222
q0 29 -20 50t-58 21t-58.5 -21t-20.5 -50v-222q0 -29 20.5 -50t58.5 -21z" />
    <glyph glyph-name="afii10097" unicode="&#x44f;" horiz-adv-x="434" 
d="M261 244l36 -77h-78q-23 -40 -49 -84.5t-48 -82.5h-86l103 181q-38 16 -58.5 48.5t-20.5 87.5v37q0 68 43 107t117 39h155v-500h-78v423h-77q-37 0 -59 -18.5t-22 -50.5v-37q0 -40 23.5 -56.5t59.5 -16.5h39z" />
    <glyph glyph-name="afii10071" unicode="&#x451;" horiz-adv-x="422" 
d="M164 219l-35 76v-147q0 -30 21 -50.5t64 -20.5h146v-77h-146q-41 0 -71.5 11.5t-51 31.5t-31 47t-10.5 58v213q0 30 10.5 56t31 45.5t51 31t71.5 11.5q39 0 69 -10.5t50 -29t30.5 -43t10.5 -52.5v-151h-210zM129 295h166v75q0 24 -20.5 41t-60.5 17q-43 0 -64 -20
t-21 -47v-66zM107 655h75v-90h-75v90zM227 655h75v-90h-75v90z" />
    <glyph glyph-name="afii10099" unicode="&#x452;" horiz-adv-x="465" 
d="M158 500v-500h-79v574h-69v74h69v83h79v-83h156v-74h-156v-74h94q36 0 64 -11t47.5 -30t29.5 -44.5t10 -53.5v-342q0 -39 -8.5 -73t-25 -59t-41 -39.5t-56.5 -14.5h-53v80h53q25 0 39 30t14 76v342q0 25 -18 43.5t-63 18.5h-50z" />
    <glyph glyph-name="afii10100" unicode="&#x453;" horiz-adv-x="327" 
d="M59 500h245v-77h-166v-423h-79v500zM171 565h-60l80 135h110z" />
    <glyph glyph-name="afii10101" unicode="&#x454;" horiz-adv-x="353" 
d="M129 289v-122q0 -37 21.5 -63.5t63.5 -26.5h119v-77h-119q-41 0 -71.5 13.5t-51 36t-31 53t-10.5 64.5v166q0 34 10.5 64.5t31 53t51 36t71.5 13.5h119v-77h-119q-42 0 -63.5 -26.5t-21.5 -63.5v-44h174v-77h-138z" />
    <glyph glyph-name="afii10102" unicode="&#x455;" horiz-adv-x="395" 
d="M37 357v7q0 60 41.5 98t117.5 38h136v-77h-136q-38 0 -59 -16t-21 -41v-9h-79zM116 355q2 -15 10 -25.5t20 -17t26.5 -11.5t29.5 -9q39 -12 69 -23t49.5 -27.5t29.5 -40t10 -60.5q0 -68 -42.5 -104.5t-117.5 -36.5h-163v77h162q38 0 60 16t22 45q0 35 -25 50t-73 28
q-19 5 -41 11t-42 17.5t-36 30t-23 47.5z" />
    <glyph glyph-name="afii10103" unicode="&#x456;" horiz-adv-x="196" 
d="M59 500h78v-500h-78v500zM59 680h78v-102h-78v102z" />
    <glyph glyph-name="afii10104" unicode="&#x457;" horiz-adv-x="163" 
d="M-11 680h70v-90h-70v90zM104 680h70v-90h-70v90zM42 0h78v500h-78v-500z" />
    <glyph glyph-name="afii10105" unicode="&#x458;" horiz-adv-x="223" 
d="M84 -250v750h79v-715zM84 680h79v-102h-79v102z" />
    <glyph glyph-name="afii10106" unicode="&#x459;" horiz-adv-x="589" 
d="M197 423h-77l4 77h221v-167h46q36 0 65.5 -8t51 -26t33.5 -46.5t12 -69.5v-37q0 -68 -43 -107t-116 -39h-128v423h-69q-4 -111 -13 -190.5t-25 -131.5t-40.5 -76.5t-58.5 -24.5h-51v81h49q13 0 22.5 16.5t16.5 53t12 95t9 142.5zM345 333v-256h49q37 0 59 18.5t22 50.5
v37q0 40 -24 56.5t-60 16.5h-11z" />
    <glyph glyph-name="afii10107" unicode="&#x45a;" horiz-adv-x="605" 
d="M138 289v-289h-79v500h79v-211h144v211h78v-167h47q35 0 65 -8t51.5 -26t33.5 -46.5t12 -69.5v-37q0 -68 -43 -107t-117 -39h-127v212h-109zM360 333v-256h49q37 0 59 18.5t22 50.5v37q0 40 -23.5 56.5t-59.5 16.5h-12z" />
    <glyph glyph-name="afii10108" unicode="&#x45b;" horiz-adv-x="465" 
d="M158 500v-500h-79v593h-69v74h69v83h79v-83h156v-74h-123l-33 74v-167h94q36 0 64 -11t47.5 -30t29.5 -44.5t10 -53.5v-361h-78v361q0 25 -18 43.5t-63 18.5h-51z" />
    <glyph glyph-name="afii10109" unicode="&#x45c;" horiz-adv-x="419" 
d="M59 499h78v-204h19q35 50 70.5 103t70.5 102h91l-167 -244q19 -29 40.5 -62t43.5 -67t43 -66.5t40 -60.5h-92l-159 244v-244h-78v499zM214 565h-60l80 135h110z" />
    <glyph glyph-name="afii10110" unicode="&#x45e;" horiz-adv-x="416" 
d="M181 189q9 -31 13 -63t10 -64q6 32 11 63.5t13 62.5l86 312h78l-205 -750h-78l56 208q-38 131 -77.5 271.5t-76.5 270.5h80zM321 673q0 -61 -31.5 -88t-91.5 -27q-61 0 -92.5 27t-31.5 88h63q0 -38 15.5 -51t45.5 -13q29 0 44.5 13t15.5 51h63z" />
    <glyph glyph-name="afii10193" unicode="&#x45f;" horiz-adv-x="442" 
d="M59 500h78v-423h167v423h79v-500h-122v-139h-80v139h-122v500z" />
    <glyph glyph-name="afii10146" unicode="&#x462;" horiz-adv-x="485" 
d="M195 449h75q44 0 77.5 -14.5t56.5 -39t34.5 -57t11.5 -68.5v-90q0 -37 -11.5 -69.5t-34.5 -57t-56.5 -39t-77.5 -14.5h-160v619h-100v81h360v-81h-175v-170zM195 449v-368h75q47 0 71 29.5t24 69.5v90q0 40 -24 69t-71 29h-38z" />
    <glyph glyph-name="afii10194" unicode="&#x463;" horiz-adv-x="448" 
d="M176 500v-167h74q35 0 65 -8t51.5 -26t33.5 -46.5t12 -69.5v-37q0 -68 -43 -107t-116 -39h-156v423h-88v77h88v216l79 34v-250h118v-77h-83zM176 333v-256h77q37 0 58.5 18.5t21.5 50.5v37q0 40 -23.5 56.5t-59.5 16.5h-39z" />
    <glyph glyph-name="afii10050" unicode="&#x490;" horiz-adv-x="377" 
d="M285 842h81v-223h-218v-619h-85v700h222v142z" />
    <glyph glyph-name="afii10098" unicode="&#x491;" horiz-adv-x="323" 
d="M228 606h76v-183h-166v-423h-79v500h169v106z" />
    <glyph glyph-name="afii10846" unicode="&#x4d9;" horiz-adv-x="422" 
d="M295 352q0 30 -21 50.5t-64 20.5h-146v77h146q40 0 71 -11.5t51.5 -31.5t31 -47t10.5 -58v-213q0 -30 -10.5 -56t-31 -45.5t-51.5 -31t-71 -11.5q-39 0 -69 10.5t-50 29t-30.5 43t-10.5 52.5v151h210l35 -76h-166v-75q0 -24 20.5 -41t60.5 -17q43 0 64 20t21 47v213z" />
    <glyph glyph-name="Wgrave" unicode="&#x1e80;" horiz-adv-x="702" 
d="M248 0h-79l-150 700h86l92 -429q5 -25 7 -50t5 -50q3 25 4.5 50t6.5 50l92 429h79l92 -429q5 -25 6.5 -50t4.5 -50q3 25 5 50t7 50l91 429h86l-149 -700h-79l-92 430q-5 23 -7 45t-5 45q-3 -23 -4.5 -45t-6.5 -45zM225 900h110l80 -135h-60z" />
    <glyph glyph-name="wgrave" unicode="&#x1e81;" horiz-adv-x="568" 
d="M549 500l-120 -500h-69l-72 307q-2 10 -2.5 19t-1.5 19q-1 -10 -1.5 -19t-2.5 -19l-72 -307h-68l-121 500h79l71 -307q2 -11 2.5 -21t2.5 -21q2 11 2.5 21t2.5 21l71 307h69l71 -307q2 -11 3 -21t3 -21q1 11 1 21t2 21l71 307h79zM160 700h110l80 -135h-60z" />
    <glyph glyph-name="Wacute" unicode="&#x1e82;" horiz-adv-x="702" 
d="M248 0h-79l-150 700h86l92 -429q5 -25 7 -50t5 -50q3 25 4.5 50t6.5 50l92 429h79l92 -429q5 -25 6.5 -50t4.5 -50q3 25 5 50t7 50l91 429h86l-149 -700h-79l-92 430q-5 23 -7 45t-5 45q-3 -23 -4.5 -45t-6.5 -45zM365 765h-60l80 135h110z" />
    <glyph glyph-name="wacute" unicode="&#x1e83;" horiz-adv-x="568" 
d="M549 500l-120 -500h-69l-72 307q-2 10 -2.5 19t-1.5 19q-1 -10 -1.5 -19t-2.5 -19l-72 -307h-68l-121 500h79l71 -307q2 -11 2.5 -21t2.5 -21q2 11 2.5 21t2.5 21l71 307h69l71 -307q2 -11 3 -21t3 -21q1 11 1 21t2 21l71 307h79zM300 565h-60l80 135h110z" />
    <glyph glyph-name="Wdieresis" unicode="&#x1e84;" horiz-adv-x="702" 
d="M248 0h-79l-150 700h86l92 -429q5 -25 7 -50t5 -50q3 25 4.5 50t6.5 50l92 429h79l92 -429q5 -25 6.5 -50t4.5 -50q3 25 5 50t7 50l91 429h86l-149 -700h-79l-92 430q-5 23 -7 45t-5 45q-3 -23 -4.5 -45t-6.5 -45zM247 855h75v-90h-75v90zM367 855h75v-90h-75v90z" />
    <glyph glyph-name="wdieresis" unicode="&#x1e85;" horiz-adv-x="568" 
d="M549 500l-120 -500h-69l-72 307q-2 10 -2.5 19t-1.5 19q-1 -10 -1.5 -19t-2.5 -19l-72 -307h-68l-121 500h79l71 -307q2 -11 2.5 -21t2.5 -21q2 11 2.5 21t2.5 21l71 307h69l71 -307q2 -11 3 -21t3 -21q1 11 1 21t2 21l71 307h79zM182 655h75v-90h-75v90zM302 655h75v-90
h-75v90z" />
    <glyph glyph-name="Ygrave" unicode="&#x1ef2;" horiz-adv-x="465" 
d="M355 700h91l-171 -426v-274h-86v275l-170 425h92l101 -255q8 -19 11.5 -38.5t8.5 -39.5q5 20 9 40t12 39zM94 900h110l80 -135h-60z" />
    <glyph glyph-name="ygrave" unicode="&#x1ef3;" horiz-adv-x="416" 
d="M181 189q9 -31 13 -63t10 -64q6 32 11 63.5t13 62.5l86 312h78l-205 -750h-78l56 208q-38 131 -77.5 271.5t-76.5 270.5h80zM77 700h110l80 -135h-60z" />
    <glyph glyph-name="endash" unicode="&#x2013;" horiz-adv-x="461" 
d="M63 229v43h335v-43h-335z" />
    <glyph glyph-name="emdash" unicode="&#x2014;" horiz-adv-x="611" 
d="M63 229v43h485v-43h-485z" />
    <glyph glyph-name="quoteleft" unicode="&#x2018;" horiz-adv-x="148" 
d="M103 626v-56h-58v56q0 32 13.5 53t40.5 21h4v-26h-4q-14 0 -19.5 -14.5t-5.5 -33.5h29z" />
    <glyph glyph-name="quoteright" unicode="&#x2019;" horiz-adv-x="148" 
d="M45 644v56h58v-56q0 -32 -13.5 -53t-40.5 -21h-4v26h4q14 0 19.5 14.5t5.5 33.5h-29z" />
    <glyph glyph-name="quotesinglbase" unicode="&#x201a;" horiz-adv-x="148" 
d="M45 0v56h58v-56q0 -32 -13.5 -53t-40.5 -21h-4v26h4q14 0 19.5 14.5t5.5 33.5h-29z" />
    <glyph glyph-name="quotedblleft" unicode="&#x201c;" horiz-adv-x="248" 
d="M203 626v-56h-58v56q0 32 13.5 53t40.5 21h4v-26h-4q-14 0 -19.5 -14.5t-5.5 -33.5h29zM103 626v-56h-58v56q0 32 13.5 53t40.5 21h4v-26h-4q-14 0 -19.5 -14.5t-5.5 -33.5h29z" />
    <glyph glyph-name="quotedblright" unicode="&#x201d;" horiz-adv-x="248" 
d="M45 644v56h58v-56q0 -32 -13.5 -53t-40.5 -21h-4v26h4q14 0 19.5 14.5t5.5 33.5h-29zM145 644v56h58v-56q0 -32 -13.5 -53t-40.5 -21h-4v26h4q14 0 19.5 14.5t5.5 33.5h-29z" />
    <glyph glyph-name="quotedblbase" unicode="&#x201e;" horiz-adv-x="248" 
d="M45 0v56h58v-56q0 -32 -13.5 -53t-40.5 -21h-4v26h4q14 0 19.5 14.5t5.5 33.5h-29zM145 0v56h58v-56q0 -32 -13.5 -53t-40.5 -21h-4v26h4q14 0 19.5 14.5t5.5 33.5h-29z" />
    <glyph glyph-name="bullet" unicode="&#x2022;" horiz-adv-x="286" 
d="M63 330q0 34 23 57t57 23t57 -23t23 -57t-23 -57t-57 -23t-57 23t-23 57z" />
    <glyph glyph-name="ellipsis" unicode="&#x2026;" horiz-adv-x="635" 
d="M60 0v97h99v-97h-99zM267 0v97h99v-97h-99zM474 0v97h99v-97h-99z" />
    <glyph glyph-name="Euro" unicode="&#x20ac;" horiz-adv-x="453" 
d="M178 435h190l-20 -44h-170v-82h190l-20 -44h-170v-77q0 -107 94 -107h161v-81h-162q-88 0 -133 48.5t-45 139.5v77h-80l20 44h60v82h-80l20 44h60v77q0 91 45 139.5t133 48.5h162v-81h-161q-94 0 -94 -107v-77z" />
    <glyph glyph-name="uni20B4" unicode="&#x20b4;" horiz-adv-x="447" 
d="M316 557q0 29 -19.5 45.5t-70.5 16.5h-180v81h179q93 0 134.5 -37.5t41.5 -107.5q0 -32 -7.5 -57.5t-21.5 -48.5h62v-79h-421v79h258q20 20 32.5 48.5t12.5 59.5zM222 0q-94 0 -135 38t-41 110q0 56 27 103h-60v79h421v-79h-257q-20 -21 -33 -47.5t-13 -54.5
q0 -33 19.5 -50.5t70.5 -17.5h180v-81h-179z" />
    <glyph glyph-name="afii61352" unicode="&#x2116;" horiz-adv-x="843" 
d="M650 354q-30 0 -53.5 10.5t-39 28t-23.5 40.5t-8 49v100q0 26 8 49t23.5 40.5t39 28t53.5 10.5t53.5 -10.5t39 -28t23.5 -40.5t8 -49v-100q0 -26 -8 -49t-23.5 -40.5t-39 -28t-53.5 -10.5zM526 244v43h248v-43h-248zM650 397q38 0 58.5 25t20.5 60v100q0 35 -20.5 60
t-58.5 25t-58.5 -25t-20.5 -60v-100q0 -35 20.5 -60t58.5 -25zM166 456l-23 80q2 -40 3.5 -79.5t1.5 -79.5v-377h-85v700h98l177 -456l22 -80q-2 39 -3 79t-1 80v377h85v-700h-98z" />
    <glyph glyph-name="trademark" unicode="&#x2122;" horiz-adv-x="450" 
d="M296 589q7 -25 12.5 -50t10.5 -51h1q5 26 10.5 51t12.5 50l30 111h40v-300h-25v139q0 35 1 69t2 69h-1l-23 -93l-35 -128h-25l-35 128l-23 93h-1q1 -35 2 -69t1 -69v-139h-25v300h40zM82 400v277h-72v23h170v-23h-73v-277h-25z" />
    <glyph glyph-name="estimated" unicode="&#x212e;" horiz-adv-x="873" 
d="M205 317q-5 0 -5 -4v-183q0 -10 9 -21q43 -46 102 -72.5t127 -26.5q72 0 134 30t106 81h55q-51 -60 -128 -95.5t-168 -35.5q-77 0 -145 26.5t-119 72t-80.5 106.5t-29.5 131t29.5 131t80.5 106.5t119 72t145 26.5t145 -26.5t118.5 -72t80 -106.5t29.5 -131v-9h-605z
M674 525q0 12 -10 22q-44 44 -102 69.5t-124 25.5q-68 0 -126 -26.5t-102 -71.5q-10 -10 -10 -23v-180q0 -5 5 -5h464q5 0 5 5v184z" />
    <glyph glyph-name="minus" unicode="&#x2212;" 
d="M63 373h370v-46h-370v46z" />
    <glyph glyph-name="Q.salt" unicode="&#xe051;" 
d="M233 -5q-88 0 -133.5 50t-45.5 143v324q0 93 45.5 143t133.5 50h30q88 0 133.5 -50t45.5 -143v-324q0 -60 -21 -103t-59 -66l52 -126h-92l-43 102h-46zM284 208l46 -109q27 26 27 89v324q0 111 -95 111h-28q-46 0 -70.5 -27t-24.5 -84v-324q0 -57 24.5 -84t70.5 -27h12
l-54 131h92z" />
    <glyph glyph-name="registered.sups" unicode="&#xe0ae;" horiz-adv-x="520" 
d="M65 560q0 38 12.5 72.5t37.5 60.5t61 41.5t84 15.5q47 0 83.5 -15.5t61 -41.5t37.5 -60.5t13 -72.5v-200q0 -38 -13 -72.5t-37.5 -60.5t-61 -41.5t-83.5 -15.5q-48 0 -84 15.5t-61 41.5t-37.5 60.5t-12.5 72.5v200zM105 360q0 -31 10 -59t30 -49.5t48.5 -34t66.5 -12.5
q37 0 66 12.5t49 34t30 49.5t10 59v200q0 31 -10 59t-30 49.5t-49 34t-66 12.5q-38 0 -66.5 -12.5t-48.5 -34t-30 -49.5t-10 -59v-200zM186 583l43 16h-43v41h80q45 0 67.5 -26.5t22.5 -63.5v-45q0 -26 -11 -47.5t-34 -32.5l51 -135h-46l-49 125h-21l-17 41v-166h-43v293z
M229 456h37q23 0 35.5 14.5t12.5 34.5v45q0 20 -12.5 34.5t-35.5 14.5h-37v-143z" />
    <glyph glyph-name="commaaccent" horiz-adv-x="162" 
d="M45 -115v60h72v-60q0 -29 -14.5 -48t-43.5 -19h-14v33h14q13 0 17.5 10t4.5 24h-36z" />
    <glyph glyph-name="ogonek_for_e" horiz-adv-x="408" 
d="M205 -84q0 23 13 49t43 57l40 -3q-23 -22 -36.5 -48t-13.5 -46q0 -21 12 -32t33 -11q20 0 49 14l15 -36q-15 -9 -34.5 -15t-40.5 -6q-36 0 -58 22.5t-22 54.5z" />
    <glyph glyph-name="slash_for_L" horiz-adv-x="265" 
d="M-10 266l-18 39l303 142l18 -39z" />
    <glyph glyph-name="undercommaaccent" horiz-adv-x="142" 
d="M97 615v-50h-52v50q0 29 12 48t36 19h4v-23h-4q-13 0 -17.5 -13.5t-4.5 -30.5h26z" />
    <glyph glyph-name="numbersign" unicode="#" horiz-adv-x="567" 
d="M305 0l28 196h-133l-27 -196h-68l28 196h-99l10 67h98l19 133h-99l10 67h99l27 197h68l-28 -197h133l27 197h68l-28 -197h94l-10 -67h-94l-18 -133h94l-10 -67h-94l-27 -196h-68zM361 396h-133l-18 -133h132z" />
    <glyph glyph-name="arrowleft" unicode="&#x2190;" horiz-adv-x="652" 
d="M155 337h447v-74h-445l151 -146l-53 -52l-235 236l235 235l53 -52z" />
    <glyph glyph-name="arrowup" unicode="&#x2191;" horiz-adv-x="541" 
d="M86 317l-52 53l235 235l236 -235l-52 -53l-146 151v-445h-74v447z" />
    <glyph glyph-name="arrowright" unicode="&#x2192;" horiz-adv-x="652" 
d="M344 484l53 52l235 -235l-235 -236l-53 52l151 146h-445v74h447z" />
    <glyph glyph-name="arrowdown" unicode="&#x2193;" horiz-adv-x="541" 
d="M233 129v447h74v-445l146 151l52 -53l-236 -235l-235 235l52 53z" />
    <glyph glyph-name="arrowboth" unicode="&#x2194;" horiz-adv-x="742" 
d="M434 484l53 52l235 -235l-235 -236l-53 52l151 146h-428l151 -146l-53 -52l-235 236l235 235l53 -52l-153 -147h432z" />
    <glyph glyph-name="arrowupdn" unicode="&#x2195;" horiz-adv-x="541" 
d="M87 363l-52 53l235 235l236 -235l-52 -53l-146 151v-428l146 151l52 -53l-236 -235l-235 235l52 53l147 -153v432z" />
    <glyph glyph-name="uni2196" unicode="&#x2196;" horiz-adv-x="500" 
d="M151 455l316 -316l-53 -53l-314 315l4 -209h-74v333h332v-75z" />
    <glyph glyph-name="uni2197" unicode="&#x2197;" horiz-adv-x="500" 
d="M135 450v75h332v-333h-74l4 209l-314 -315l-53 53l316 316z" />
    <glyph glyph-name="uni2198" unicode="&#x2198;" horiz-adv-x="500" 
d="M346 156l-316 316l53 53l314 -315l-4 209h74v-333h-332v75z" />
    <glyph glyph-name="uni2199" unicode="&#x2199;" horiz-adv-x="500" 
d="M362 161v-75h-332v333h74l-4 -209l314 315l53 -53l-316 -316z" />
    <glyph glyph-name="uni21A4" unicode="&#x21a4;" horiz-adv-x="652" 
d="M155 337h373v127h74v-328h-74v127h-371l151 -146l-53 -52l-235 236l235 235l53 -52z" />
    <glyph glyph-name="uni21A5" unicode="&#x21a5;" horiz-adv-x="541" 
d="M87 318l-52 53l235 235l236 -235l-52 -53l-146 151v-371h127v-74h-328v74h127v373z" />
    <glyph glyph-name="uni21A6" unicode="&#x21a6;" horiz-adv-x="652" 
d="M344 484l53 52l235 -235l-235 -236l-53 52l151 146h-371v-127h-74v328h74v-127h373z" />
    <glyph glyph-name="uni21A7" unicode="&#x21a7;" horiz-adv-x="541" 
d="M234 129v373h-127v74h328v-74h-127v-371l146 151l52 -53l-236 -235l-235 235l52 53z" />
    <glyph glyph-name="exclam" unicode="!" horiz-adv-x="213" 
d="M155 700l-16 -511h-65l-16 511h97zM149 128v-128h-85v128h85z" />
    <glyph glyph-name="quotedbl" unicode="&#x22;" horiz-adv-x="254" 
d="M108 700l-15 -200h-40l-15 200h70zM197 700l-15 -200h-40l-15 200h70z" />
    </font>
</defs>
</svg>
